SplineFontDB: 3.2
FontName: VALORANT-Regular
FullName: VALORANT
FamilyName: VALORANT
Weight: Book
Version: 1.000
ItalicAngle: 0
UnderlinePosition: -125
UnderlineWidth: 50
Ascent: 750
Descent: 250
InvalidEm: 0
sfntRevision: 0x00010000
LayerCount: 2
Layer: 0 1 "Back" 1
Layer: 1 1 "Fore" 0
XUID: [1021 578 241454984 8895205]
StyleMap: 0x0040
FSType: 4
OS2Version: 3
OS2_WeightWidthSlopeOnly: 0
OS2_UseTypoMetrics: 0
CreationTime: 1586606359
ModificationTime: 1606008642
PfmFamily: 81
TTFWeight: 400
TTFWidth: 5
LineGap: 100
VLineGap: 0
Panose: 0 0 0 0 0 0 0 0 0 0
OS2TypoAscent: 750
OS2TypoAOffset: 0
OS2TypoDescent: -250
OS2TypoDOffset: 0
OS2TypoLinegap: 100
OS2WinAscent: 750
OS2WinAOffset: 0
OS2WinDescent: 250
OS2WinDOffset: 0
HheadAscent: 750
HheadAOffset: 0
HheadDescent: -250
HheadDOffset: 0
OS2SubXSize: 650
OS2SubYSize: 600
OS2SubXOff: 0
OS2SubYOff: 75
OS2SupXSize: 650
OS2SupYSize: 600
OS2SupXOff: 0
OS2SupYOff: 350
OS2StrikeYSize: 50
OS2StrikeYPos: 300
OS2CapHeight: 700
OS2XHeight: 500
OS2Vendor: '    '
OS2CodePages: 00000001.00000000
OS2UnicodeRanges: 80000001.00000000.00000000.00000000
Lookup: 4 0 1 "'liga' Standard Ligatures in Latin lookup 0" { "'liga' Standard Ligatures in Latin lookup 0 subtable"  } ['liga' ('DFLT' <'dflt' > 'latn' <'dflt' > ) ]
Lookup: 258 0 0 "'kern' Horizontal Kerning in Latin lookup 0" { "'kern' Horizontal Kerning in Latin lookup 0 per glyph data 0"  "'kern' Horizontal Kerning in Latin lookup 0 per glyph data 1"  "'kern' Horizontal Kerning in Latin lookup 0 kerning class 2"  } ['kern' ('latn' <'dflt' > ) ]
MarkAttachClasses: 1
DEI: 91125
KernClass2: 13+ 11 "'kern' Horizontal Kerning in Latin lookup 0 kerning class 2"
 15 B three eight b
 3 C c
 15 D G O Q g o q d
 3 P p
 3 R r
 3 T t
 24 X Y parenleft K less k x
 25 a m backslash n_backslash
 25 hyphen plus endash emdash
 18 parenright greater
 23 period comma underscore
 54 quotesingle quotedbl quoteleft quoteright quotedblleft
 11 v w y slash
 25 hyphen plus endash emdash
 14 parenleft less

StartChar: a
Encoding: 97 97 4
Width: 734
GlyphClass: 2
Flags: W
LayerCount: 2
Fore
SplineSet
73 12 m 2,0,-1
 73 688 l 2,1,2
 73 693 73 693 76.5 696.5 c 128,-1,3
 80 700 80 700 85 700 c 2,4,-1
 180 700 l 2,5,6
 200 700 200 700 213 684 c 2,7,-1
 728 14 l 2,8,9
 731 9 731 9 728.5 4.5 c 128,-1,10
 726 0 726 0 720 0 c 2,11,-1
 593 0 l 2,12,13
 573 0 573 0 560 16 c 2,14,-1
 387 242 l 1,15,-1
 213 16 l 2,16,17
 200 0 200 0 180 0 c 2,18,-1
 85 0 l 2,19,20
 80 0 80 0 76.5 3.5 c 128,-1,21
 73 7 73 7 73 12 c 2,0,-1
201 484 m 1,22,-1
 201 216 l 1,23,-1
 304 350 l 1,24,-1
 201 484 l 1,22,-1
EndSplineSet
EndChar

StartChar: A
Encoding: 65 65 5
Width: 734
GlyphClass: 2
Flags: W
LayerCount: 2
Fore
SplineSet
9 14 m 2,0,-1
 523 684 l 2,1,2
 536 700 536 700 556 700 c 2,3,-1
 651 700 l 2,4,5
 663 700 663 700 663 688 c 2,6,-1
 663 12 l 2,7,8
 663 0 663 0 651 0 c 2,9,-1
 556 0 l 2,10,11
 536 0 536 0 523 16 c 2,12,-1
 350 242 l 1,13,-1
 176 16 l 2,14,15
 163 0 163 0 143 0 c 2,16,-1
 16 0 l 2,17,18
 11 0 11 0 8 4.5 c 128,-1,19
 5 9 5 9 9 14 c 2,0,-1
433 350 m 1,20,-1
 536 216 l 1,21,-1
 536 484 l 1,22,-1
 433 350 l 1,20,-1
EndSplineSet
EndChar

StartChar: B
Encoding: 66 66 6
Width: 696
GlyphClass: 2
Flags: W
LayerCount: 2
Fore
SplineSet
85 700 m 2,0,-1
 613 700 l 2,1,2
 625 700 625 700 625 688 c 2,3,-1
 625 541 l 2,4,5
 625 527 625 527 617 516 c 2,6,-1
 489 350 l 1,7,-1
 617 184 l 2,8,9
 625 173 625 173 625 159 c 2,10,-1
 625 12 l 2,11,12
 625 0 625 0 613 0 c 2,13,-1
 85 0 l 2,14,15
 80 0 80 0 76.5 3.5 c 128,-1,16
 73 7 73 7 73 12 c 2,17,-1
 73 688 l 2,18,19
 73 693 73 693 76.5 696.5 c 128,-1,20
 80 700 80 700 85 700 c 2,0,-1
494 127 m 1,21,-1
 329 342 l 2,22,23
 324 350 324 350 329 357 c 2,24,-1
 494 573 l 1,25,-1
 201 573 l 1,26,-1
 201 127 l 1,27,-1
 494 127 l 1,21,-1
EndSplineSet
EndChar

StartChar: C
Encoding: 67 67 7
Width: 717
GlyphClass: 2
Flags: W
LayerCount: 2
Fore
SplineSet
45 353 m 256,0,1
 45 430 45 430 73.5 496 c 128,-1,2
 102 562 102 562 150.5 611 c 128,-1,3
 199 660 199 660 265 687.5 c 128,-1,4
 331 715 331 715 407 714 c 0,5,6
 488 713 488 713 556.5 681 c 128,-1,7
 625 649 625 649 675 593 c 0,8,9
 678 589 678 589 677.5 584 c 128,-1,10
 677 579 677 579 673 576 c 2,11,-1
 594 509 l 2,12,13
 590 506 590 506 585 506.5 c 128,-1,14
 580 507 580 507 577 511 c 0,15,16
 544 549 544 549 499 571.5 c 128,-1,17
 454 594 454 594 402 593 c 0,18,19
 355 592 355 592 313 572.5 c 128,-1,20
 271 553 271 553 240 519.5 c 128,-1,21
 209 486 209 486 191 442 c 128,-1,22
 173 398 173 398 173 348 c 256,23,24
 173 298 173 298 192 254 c 128,-1,25
 211 210 211 210 243 177 c 128,-1,26
 275 144 275 144 317 125.5 c 128,-1,27
 359 107 359 107 407 107 c 0,28,29
 457 108 457 108 501 130 c 128,-1,30
 545 152 545 152 577 190 c 0,31,32
 580 194 580 194 585 194.5 c 128,-1,33
 590 195 590 195 594 191 c 2,34,-1
 673 124 l 2,35,36
 677 121 677 121 677.5 116 c 128,-1,37
 678 111 678 111 675 107 c 0,38,39
 624 50 624 50 554 17.5 c 128,-1,40
 484 -15 484 -15 401 -14 c 0,41,42
 326 -14 326 -14 260.5 14.5 c 128,-1,43
 195 43 195 43 147 92.5 c 128,-1,44
 99 142 99 142 72 209 c 128,-1,45
 45 276 45 276 45 353 c 256,0,1
EndSplineSet
EndChar

StartChar: D
Encoding: 68 68 8
Width: 701
GlyphClass: 2
Flags: W
LayerCount: 2
Fore
SplineSet
73 688 m 2,0,1
 73 693 73 693 76.5 696.5 c 128,-1,2
 80 700 80 700 85 700 c 2,3,-1
 308 700 l 2,4,5
 380 700 380 700 443 673 c 128,-1,6
 506 646 506 646 553 599.5 c 128,-1,7
 600 553 600 553 628.5 490.5 c 128,-1,8
 657 428 657 428 658 357 c 0,9,10
 660 283 660 283 631.5 218 c 128,-1,11
 603 153 603 153 554 104.5 c 128,-1,12
 505 56 505 56 439.5 28 c 128,-1,13
 374 0 374 0 300 0 c 2,14,-1
 85 0 l 2,15,16
 80 0 80 0 76.5 3.5 c 128,-1,17
 73 7 73 7 73 12 c 2,18,-1
 73 688 l 2,0,1
201 127 m 1,19,-1
 308 127 l 2,20,21
 354 127 354 127 394.5 144.5 c 128,-1,22
 435 162 435 162 465.5 192.5 c 128,-1,23
 496 223 496 223 513.5 263.5 c 128,-1,24
 531 304 531 304 531 350 c 256,25,26
 531 396 531 396 513.5 436.5 c 128,-1,27
 496 477 496 477 465.5 507.5 c 128,-1,28
 435 538 435 538 394.5 555.5 c 128,-1,29
 354 573 354 573 308 573 c 2,30,-1
 201 573 l 1,31,-1
 201 127 l 1,19,-1
EndSplineSet
EndChar

StartChar: e
Encoding: 101 101 9
Width: 562
GlyphClass: 2
Flags: W
LayerCount: 2
Fore
SplineSet
73 688 m 2,0,1
 73 693 73 693 76.5 696.5 c 128,-1,2
 80 700 80 700 85 700 c 2,3,-1
 517 700 l 2,4,5
 529 700 529 700 529 688 c 2,6,-1
 529 585 l 2,7,8
 529 573 529 573 517 573 c 2,9,-1
 201 573 l 1,10,-1
 201 413 l 1,11,-1
 451 413 l 2,12,13
 463 413 463 413 463 401 c 2,14,-1
 463 299 l 2,15,16
 463 286 463 286 451 286 c 2,17,-1
 201 286 l 1,18,-1
 201 127 l 1,19,-1
 548 127 l 2,20,21
 554 127 554 127 556.5 122 c 128,-1,22
 559 117 559 117 555 113 c 2,23,-1
 481 16 l 2,24,25
 468 0 468 0 448 0 c 2,26,-1
 85 0 l 2,27,28
 80 0 80 0 76.5 3.5 c 128,-1,29
 73 7 73 7 73 12 c 2,30,-1
 73 688 l 2,0,1
EndSplineSet
EndChar

StartChar: E
Encoding: 69 69 10
Width: 628
GlyphClass: 2
Flags: W
LayerCount: 2
Fore
SplineSet
85 700 m 2,0,-1
 548 700 l 2,1,2
 554 700 554 700 556.5 695.5 c 128,-1,3
 559 691 559 691 555 686 c 2,4,-1
 481 589 l 2,5,6
 468 573 468 573 448 573 c 2,7,-1
 201 573 l 1,8,-1
 201 413 l 1,9,-1
 451 413 l 2,10,11
 463 413 463 413 463 401 c 2,12,-1
 463 299 l 2,13,14
 463 286 463 286 451 286 c 2,15,-1
 201 286 l 1,16,-1
 201 127 l 1,17,-1
 517 127 l 2,18,19
 522 127 522 127 525.5 123.5 c 128,-1,20
 529 120 529 120 529 115 c 2,21,-1
 529 12 l 2,22,23
 529 0 529 0 517 0 c 2,24,-1
 85 0 l 2,25,26
 80 0 80 0 76.5 3.5 c 128,-1,27
 73 7 73 7 73 12 c 2,28,-1
 73 688 l 2,29,30
 73 693 73 693 76.5 696.5 c 128,-1,31
 80 700 80 700 85 700 c 2,0,-1
EndSplineSet
EndChar

StartChar: F
Encoding: 70 70 11
Width: 562
GlyphClass: 2
Flags: W
LayerCount: 2
Fore
SplineSet
85 700 m 2,0,-1
 548 700 l 2,1,2
 554 700 554 700 556.5 695.5 c 128,-1,3
 559 691 559 691 555 686 c 2,4,-1
 481 589 l 2,5,6
 468 573 468 573 448 573 c 2,7,-1
 201 573 l 1,8,-1
 201 413 l 1,9,-1
 451 413 l 2,10,11
 463 413 463 413 463 401 c 2,12,-1
 463 299 l 2,13,14
 463 286 463 286 451 286 c 2,15,-1
 201 286 l 1,16,-1
 201 12 l 2,17,18
 201 0 201 0 188 0 c 2,19,-1
 85 0 l 2,20,21
 80 0 80 0 76.5 3.5 c 128,-1,22
 73 7 73 7 73 12 c 2,23,-1
 73 688 l 2,24,25
 73 693 73 693 76.5 696.5 c 128,-1,26
 80 700 80 700 85 700 c 2,0,-1
EndSplineSet
EndChar

StartChar: f
Encoding: 102 102 12
Width: 600
GlyphClass: 2
Flags: W
LayerCount: 2
Fore
SplineSet
85 700 m 2,0,-1
 517 700 l 2,1,2
 529 700 529 700 529 688 c 2,3,-1
 529 585 l 2,4,5
 529 573 529 573 517 573 c 2,6,-1
 201 573 l 1,7,-1
 201 413 l 1,8,-1
 476 413 l 2,9,10
 481 413 481 413 483.5 408.5 c 128,-1,11
 486 404 486 404 483 399 c 2,12,-1
 409 302 l 2,13,14
 396 286 396 286 376 286 c 2,15,-1
 201 286 l 1,16,-1
 201 12 l 2,17,18
 201 0 201 0 188 0 c 2,19,-1
 85 0 l 2,20,21
 80 0 80 0 76.5 3.5 c 128,-1,22
 73 7 73 7 73 12 c 2,23,-1
 73 688 l 2,24,25
 73 693 73 693 76.5 696.5 c 128,-1,26
 80 700 80 700 85 700 c 2,0,-1
EndSplineSet
EndChar

StartChar: G
Encoding: 71 71 13
Width: 809
GlyphClass: 2
Flags: W
LayerCount: 2
Fore
SplineSet
45 353 m 256,0,1
 45 430 45 430 73.5 496.5 c 128,-1,2
 102 563 102 563 150.5 611.5 c 128,-1,3
 199 660 199 660 265 687.5 c 128,-1,4
 331 715 331 715 407 714 c 0,5,6
 480 713 480 713 544 686.5 c 128,-1,7
 608 660 608 660 656 613 c 0,8,9
 664 605 664 605 657 597 c 2,10,-1
 593 514 l 2,11,12
 590 509 590 509 584.5 508.5 c 128,-1,13
 579 508 579 508 575 513 c 0,14,15
 543 550 543 550 498 572 c 128,-1,16
 453 594 453 594 402 593 c 0,17,18
 355 593 355 593 313 573 c 128,-1,19
 271 553 271 553 240 520 c 128,-1,20
 209 487 209 487 191 442.5 c 128,-1,21
 173 398 173 398 173 348 c 0,22,23
 173 299 173 299 192 255 c 128,-1,24
 211 211 211 211 243 178 c 128,-1,25
 275 145 275 145 317 126 c 128,-1,26
 359 107 359 107 407 107 c 0,27,28
 446 108 446 108 481.5 122 c 128,-1,29
 517 136 517 136 546.5 160 c 128,-1,30
 576 184 576 184 597 216.5 c 128,-1,31
 618 249 618 249 628 287 c 1,32,-1
 433 287 l 2,33,34
 428 287 428 287 425.5 291.5 c 128,-1,35
 423 296 423 296 426 301 c 2,36,-1
 490 395 l 2,37,38
 503 413 503 413 524 413 c 2,39,-1
 761 413 l 1,40,41
 764 396 764 396 765.5 380 c 128,-1,42
 767 364 767 364 766 347 c 0,43,44
 765 271 765 271 736.5 205 c 128,-1,45
 708 139 708 139 658.5 90 c 128,-1,46
 609 41 609 41 543 13.5 c 128,-1,47
 477 -14 477 -14 401 -14 c 0,48,49
 326 -14 326 -14 260.5 14.5 c 128,-1,50
 195 43 195 43 147 92.5 c 128,-1,51
 99 142 99 142 72 209 c 128,-1,52
 45 276 45 276 45 353 c 256,0,1
EndSplineSet
EndChar

StartChar: H
Encoding: 72 72 14
Width: 687
GlyphClass: 2
Flags: W
LayerCount: 2
Fore
SplineSet
73 12 m 2,0,-1
 73 688 l 2,1,2
 73 693 73 693 76.5 696.5 c 128,-1,3
 80 700 80 700 85 700 c 2,4,-1
 188 700 l 2,5,6
 201 700 201 700 201 688 c 2,7,-1
 201 413 l 1,8,-1
 488 413 l 1,9,-1
 488 688 l 2,10,11
 488 693 488 693 491.5 696.5 c 128,-1,12
 495 700 495 700 500 700 c 2,13,-1
 604 700 l 2,14,15
 609 700 609 700 612.5 696.5 c 128,-1,16
 616 693 616 693 616 688 c 2,17,-1
 616 12 l 2,18,19
 616 7 616 7 612.5 3.5 c 128,-1,20
 609 0 609 0 604 0 c 2,21,-1
 500 0 l 2,22,23
 495 0 495 0 491.5 3.5 c 128,-1,24
 488 7 488 7 488 12 c 2,25,-1
 488 286 l 1,26,-1
 201 286 l 1,27,-1
 201 12 l 2,28,29
 201 0 201 0 188 0 c 2,30,-1
 85 0 l 2,31,32
 80 0 80 0 76.5 3.5 c 128,-1,33
 73 7 73 7 73 12 c 2,0,-1
EndSplineSet
EndChar

StartChar: I
Encoding: 73 73 15
Width: 272
GlyphClass: 2
Flags: W
LayerCount: 2
Fore
SplineSet
85 700 m 2,0,-1
 188 700 l 2,1,2
 201 700 201 700 201 688 c 2,3,-1
 201 12 l 2,4,5
 201 0 201 0 188 0 c 2,6,-1
 85 0 l 2,7,8
 80 0 80 0 76.5 3.5 c 128,-1,9
 73 7 73 7 73 12 c 2,10,-1
 73 688 l 2,11,12
 73 693 73 693 76.5 696.5 c 128,-1,13
 80 700 80 700 85 700 c 2,0,-1
EndSplineSet
EndChar

StartChar: J
Encoding: 74 74 16
Width: 458
GlyphClass: 2
Flags: W
LayerCount: 2
Fore
SplineSet
5 72 m 2,0,-1
 84 138 l 2,1,2
 93 145 93 145 100 138 c 0,3,4
 130 108 130 108 175 111 c 0,5,6
 212 115 212 115 236 143 c 128,-1,7
 260 171 260 171 260 208 c 2,8,-1
 260 688 l 2,9,10
 260 693 260 693 263.5 696.5 c 128,-1,11
 267 700 267 700 272 700 c 2,12,-1
 375 700 l 2,13,14
 387 700 387 700 387 688 c 2,15,-1
 387 211 l 2,16,17
 387 165 387 165 370.5 124 c 128,-1,18
 354 83 354 83 324.5 52.5 c 128,-1,19
 295 22 295 22 255.5 3.5 c 128,-1,20
 216 -15 216 -15 171 -16 c 0,21,22
 121 -18 121 -18 78.5 1.5 c 128,-1,23
 36 21 36 21 4 54 c 0,24,25
 -4 63 -4 63 5 72 c 2,0,-1
EndSplineSet
EndChar

StartChar: j
Encoding: 106 106 17
Width: 454
GlyphClass: 2
Flags: W
LayerCount: 2
Fore
SplineSet
9 14 m 2,0,-1
 255 335 l 1,1,-1
 255 688 l 2,2,3
 255 693 255 693 258.5 696.5 c 128,-1,4
 262 700 262 700 267 700 c 2,5,-1
 370 700 l 2,6,7
 383 700 383 700 383 688 c 2,8,-1
 383 299 l 2,9,10
 383 285 383 285 374 274 c 2,11,-1
 176 16 l 2,12,13
 163 0 163 0 143 0 c 2,14,-1
 16 0 l 2,15,16
 11 0 11 0 8 4.5 c 128,-1,17
 5 9 5 9 9 14 c 2,0,-1
EndSplineSet
EndChar

StartChar: L
Encoding: 76 76 18
Width: 495
GlyphClass: 2
Flags: W
LayerCount: 2
Fore
SplineSet
85 700 m 2,0,-1
 188 700 l 2,1,2
 201 700 201 700 201 688 c 2,3,-1
 201 127 l 1,4,-1
 481 127 l 2,5,6
 487 127 487 127 489.5 122 c 128,-1,7
 492 117 492 117 489 113 c 2,8,-1
 414 16 l 2,9,10
 401 0 401 0 382 0 c 2,11,-1
 85 0 l 2,12,13
 80 0 80 0 76.5 3.5 c 128,-1,14
 73 7 73 7 73 12 c 2,15,-1
 73 688 l 2,16,17
 73 693 73 693 76.5 696.5 c 128,-1,18
 80 700 80 700 85 700 c 2,0,-1
EndSplineSet
EndChar

StartChar: M
Encoding: 77 77 19
Width: 1234
GlyphClass: 2
Flags: W
LayerCount: 2
Fore
SplineSet
9 14 m 2,0,-1
 523 684 l 2,1,2
 536 700 536 700 556 700 c 2,3,-1
 651 700 l 2,4,5
 663 700 663 700 663 688 c 2,6,-1
 663 216 l 1,7,-1
 1023 684 l 2,8,9
 1036 700 1036 700 1056 700 c 2,10,-1
 1151 700 l 2,11,12
 1163 700 1163 700 1163 688 c 2,13,-1
 1163 12 l 2,14,15
 1163 0 1163 0 1151 0 c 2,16,-1
 1048 0 l 2,17,18
 1035 0 1035 0 1035 12 c 2,19,-1
 1035 484 l 1,20,-1
 676 16 l 2,21,22
 663 0 663 0 643 0 c 2,23,-1
 548 0 l 2,24,25
 536 0 536 0 536 12 c 2,26,-1
 536 484 l 1,27,-1
 176 16 l 2,28,29
 163 0 163 0 143 0 c 2,30,-1
 16 0 l 2,31,32
 11 0 11 0 8 4.5 c 128,-1,33
 5 9 5 9 9 14 c 2,0,-1
EndSplineSet
EndChar

StartChar: m
Encoding: 109 109 20
Width: 1234
GlyphClass: 2
Flags: W
LayerCount: 2
Fore
SplineSet
85 700 m 2,0,-1
 180 700 l 2,1,2
 200 700 200 700 213 684 c 2,3,-1
 573 216 l 1,4,-1
 573 688 l 2,5,6
 573 700 573 700 585 700 c 2,7,-1
 680 700 l 2,8,9
 700 700 700 700 713 684 c 2,10,-1
 1227 14 l 2,11,12
 1231 9 1231 9 1228.5 4.5 c 128,-1,13
 1226 0 1226 0 1220 0 c 2,14,-1
 1093 0 l 2,15,16
 1073 0 1073 0 1060 16 c 2,17,-1
 700 484 l 1,18,-1
 700 12 l 2,19,20
 700 0 700 0 688 0 c 2,21,-1
 593 0 l 2,22,23
 573 0 573 0 560 16 c 2,24,-1
 201 484 l 1,25,-1
 201 12 l 2,26,27
 201 0 201 0 188 0 c 2,28,-1
 85 0 l 2,29,30
 80 0 80 0 76.5 3.5 c 128,-1,31
 73 7 73 7 73 12 c 2,32,-1
 73 688 l 2,33,34
 73 693 73 693 76.5 696.5 c 128,-1,35
 80 700 80 700 85 700 c 2,0,-1
EndSplineSet
EndChar

StartChar: N
Encoding: 78 78 21
Width: 771
GlyphClass: 2
Flags: W
LayerCount: 2
Fore
SplineSet
73 12 m 2,0,-1
 73 688 l 2,1,2
 73 693 73 693 76.5 696.5 c 128,-1,3
 80 700 80 700 85 700 c 2,4,-1
 180 700 l 2,5,6
 200 700 200 700 213 684 c 2,7,-1
 573 216 l 1,8,-1
 573 688 l 2,9,10
 573 700 573 700 585 700 c 2,11,-1
 688 700 l 2,12,13
 700 700 700 700 700 688 c 2,14,-1
 700 12 l 2,15,16
 700 0 700 0 688 0 c 2,17,-1
 593 0 l 2,18,19
 573 0 573 0 560 16 c 2,20,-1
 201 484 l 1,21,-1
 201 12 l 2,22,23
 201 0 201 0 188 0 c 2,24,-1
 85 0 l 2,25,26
 80 0 80 0 76.5 3.5 c 128,-1,27
 73 7 73 7 73 12 c 2,0,-1
EndSplineSet
EndChar

StartChar: O
Encoding: 79 79 22
Width: 809
GlyphClass: 2
Flags: W
LayerCount: 2
Fore
SplineSet
45 353 m 256,0,1
 45 430 45 430 73.5 496.5 c 128,-1,2
 102 563 102 563 150.5 611.5 c 128,-1,3
 199 660 199 660 265 687.5 c 128,-1,4
 331 715 331 715 407 714 c 256,5,6
 483 713 483 713 549 684 c 128,-1,7
 615 655 615 655 663.5 605 c 128,-1,8
 712 555 712 555 740 488.5 c 128,-1,9
 768 422 768 422 767 347 c 0,10,11
 766 271 766 271 737 205 c 128,-1,12
 708 139 708 139 658.5 90 c 128,-1,13
 609 41 609 41 543 13.5 c 128,-1,14
 477 -14 477 -14 401 -14 c 0,15,16
 326 -14 326 -14 260.5 14.5 c 128,-1,17
 195 43 195 43 147 92.5 c 128,-1,18
 99 142 99 142 72 209 c 128,-1,19
 45 276 45 276 45 353 c 256,0,1
173 348 m 0,20,21
 173 299 173 299 192 255 c 128,-1,22
 211 211 211 211 243 178 c 128,-1,23
 275 145 275 145 317 126 c 128,-1,24
 359 107 359 107 407 107 c 0,25,26
 454 108 454 108 496 128 c 128,-1,27
 538 148 538 148 569.5 181.5 c 128,-1,28
 601 215 601 215 619 259.5 c 128,-1,29
 637 304 637 304 636 353 c 0,30,31
 636 402 636 402 617 446 c 128,-1,32
 598 490 598 490 566 522.5 c 128,-1,33
 534 555 534 555 491.5 574 c 128,-1,34
 449 593 449 593 402 593 c 0,35,36
 355 592 355 592 313 572.5 c 128,-1,37
 271 553 271 553 240 519.5 c 128,-1,38
 209 486 209 486 191 442 c 128,-1,39
 173 398 173 398 173 348 c 0,20,21
EndSplineSet
EndChar

StartChar: P
Encoding: 80 80 23
Width: 656
GlyphClass: 2
Flags: W
LayerCount: 2
Fore
SplineSet
73 14 m 2,0,-1
 73 690 l 2,1,2
 73 695 73 695 76.5 698.5 c 128,-1,3
 80 702 80 702 85 702 c 2,4,-1
 613 702 l 2,5,6
 618 702 618 702 621.5 698.5 c 128,-1,7
 625 695 625 695 625 690 c 2,8,-1
 625 543 l 2,9,10
 625 529 625 529 616 518 c 2,11,-1
 470 327 l 2,12,13
 457 311 457 311 437 311 c 2,14,-1
 310 311 l 2,15,16
 304 311 304 311 301.5 315.5 c 128,-1,17
 299 320 299 320 303 325 c 2,18,-1
 495 575 l 1,19,-1
 201 575 l 1,20,-1
 201 14 l 2,21,22
 201 2 201 2 188 2 c 2,23,-1
 85 2 l 2,24,25
 80 2 80 2 76.5 5.5 c 128,-1,26
 73 9 73 9 73 14 c 2,0,-1
EndSplineSet
EndChar

StartChar: Q
Encoding: 81 81 24
Width: 809
GlyphClass: 2
Flags: W
LayerCount: 2
Fore
SplineSet
45 355 m 0,0,1
 45 432 45 432 73.5 498 c 128,-1,2
 102 564 102 564 150.5 613 c 128,-1,3
 199 662 199 662 265 689.5 c 128,-1,4
 331 717 331 717 407 716 c 256,5,6
 483 715 483 715 549 686 c 128,-1,7
 615 657 615 657 663.5 607 c 128,-1,8
 712 557 712 557 740 490.5 c 128,-1,9
 768 424 768 424 767 349 c 0,10,11
 766 282 766 282 743 222.5 c 128,-1,12
 720 163 720 163 680.5 116 c 128,-1,13
 641 69 641 69 587 37 c 128,-1,14
 533 5 533 5 470 -6 c 1,15,-1
 470 -124 l 2,16,17
 470 -137 470 -137 457 -137 c 2,18,-1
 354 -137 l 2,19,20
 342 -137 342 -137 342 -124 c 2,21,-1
 342 -7 l 1,22,23
 278 4 278 4 223 35.5 c 128,-1,24
 168 67 168 67 128.5 115 c 128,-1,25
 89 163 89 163 67 224.5 c 128,-1,26
 45 286 45 286 45 355 c 0,0,1
173 350 m 0,27,28
 173 309 173 309 186 272 c 128,-1,29
 199 235 199 235 221.5 204.5 c 128,-1,30
 244 174 244 174 275 152 c 128,-1,31
 306 130 306 130 342 119 c 1,32,-1
 342 233 l 2,33,34
 342 245 342 245 354 245 c 2,35,-1
 457 245 l 2,36,37
 470 245 470 245 470 233 c 2,38,-1
 470 120 l 1,39,40
 506 131 506 131 536.5 154 c 128,-1,41
 567 177 567 177 589.5 208 c 128,-1,42
 612 239 612 239 624 276.5 c 128,-1,43
 636 314 636 314 636 354 c 0,44,45
 636 404 636 404 617 447.5 c 128,-1,46
 598 491 598 491 566 524 c 128,-1,47
 534 557 534 557 491.5 576 c 128,-1,48
 449 595 449 595 402 595 c 0,49,50
 355 594 355 594 313 574.5 c 128,-1,51
 271 555 271 555 240 521.5 c 128,-1,52
 209 488 209 488 191 444 c 128,-1,53
 173 400 173 400 173 350 c 0,27,28
EndSplineSet
EndChar

StartChar: R
Encoding: 82 82 25
Width: 693
GlyphClass: 2
Flags: W
LayerCount: 2
Fore
SplineSet
73 690 m 2,0,1
 73 695 73 695 76.5 698.5 c 128,-1,2
 80 702 80 702 85 702 c 2,3,-1
 613 702 l 2,4,5
 618 702 618 702 621.5 698.5 c 128,-1,6
 625 695 625 695 625 690 c 2,7,-1
 625 543 l 2,8,9
 625 529 625 529 616 518 c 2,10,-1
 458 311 l 1,11,-1
 684 16 l 2,12,13
 687 11 687 11 684.5 6.5 c 128,-1,14
 682 2 682 2 677 2 c 2,15,-1
 550 2 l 2,16,17
 530 2 530 2 517 18 c 2,18,-1
 298 303 l 2,19,20
 291 311 291 311 298 318 c 2,21,-1
 495 575 l 1,22,-1
 201 575 l 1,23,-1
 201 14 l 2,24,25
 201 2 201 2 188 2 c 2,26,-1
 85 2 l 2,27,28
 80 2 80 2 76.5 5.5 c 128,-1,29
 73 9 73 9 73 14 c 2,30,-1
 73 690 l 2,0,1
EndSplineSet
EndChar

StartChar: T
Encoding: 84 84 26
Width: 598
GlyphClass: 2
Flags: W
LayerCount: 2
Fore
SplineSet
38 690 m 2,0,1
 38 695 38 695 41.5 698.5 c 128,-1,2
 45 702 45 702 50 702 c 2,3,-1
 484 702 l 2,4,5
 504 702 504 702 517 686 c 2,6,-1
 591 589 l 2,7,8
 595 584 595 584 592.5 579.5 c 128,-1,9
 590 575 590 575 584 575 c 2,10,-1
 361 575 l 1,11,-1
 361 14 l 2,12,13
 361 2 361 2 349 2 c 2,14,-1
 246 2 l 2,15,16
 234 2 234 2 234 14 c 2,17,-1
 234 575 l 1,18,-1
 50 575 l 2,19,20
 45 575 45 575 41.5 578.5 c 128,-1,21
 38 582 38 582 38 587 c 2,22,-1
 38 690 l 2,0,1
EndSplineSet
EndChar

StartChar: U
Encoding: 85 85 27
Width: 667
GlyphClass: 2
Flags: W
LayerCount: 2
Fore
SplineSet
78 702 m 2,0,-1
 181 702 l 2,1,2
 186 702 186 702 189.5 698.5 c 128,-1,3
 193 695 193 695 193 690 c 2,4,-1
 193 257 l 2,5,6
 193 230 193 230 202.5 205.5 c 128,-1,7
 212 181 212 181 228.5 161.5 c 128,-1,8
 245 142 245 142 268 130 c 128,-1,9
 291 118 291 118 318 115 c 0,10,11
 349 112 349 112 376.5 122 c 128,-1,12
 404 132 404 132 424.5 151 c 128,-1,13
 445 170 445 170 457 196.5 c 128,-1,14
 469 223 469 223 469 253 c 2,15,-1
 469 690 l 2,16,17
 469 695 469 695 473 698.5 c 128,-1,18
 477 702 477 702 482 702 c 2,19,-1
 584 702 l 2,20,21
 589 702 589 702 592.5 698.5 c 128,-1,22
 596 695 596 695 596 690 c 2,23,-1
 596 253 l 2,24,25
 596 199 596 199 575.5 151 c 128,-1,26
 555 103 555 103 520 67 c 128,-1,27
 485 31 485 31 437.5 9.5 c 128,-1,28
 390 -12 390 -12 336 -13 c 0,29,30
 280 -14 280 -14 231 7.5 c 128,-1,31
 182 29 182 29 145 66.5 c 128,-1,32
 108 104 108 104 87 153.5 c 128,-1,33
 66 203 66 203 66 259 c 2,34,-1
 66 690 l 2,35,36
 66 695 66 695 69.5 698.5 c 128,-1,37
 73 702 73 702 78 702 c 2,0,-1
EndSplineSet
EndChar

StartChar: v
Encoding: 118 118 28
Width: 734
GlyphClass: 2
Flags: W
LayerCount: 2
Fore
SplineSet
85 702 m 2,0,-1
 188 702 l 2,1,2
 193 702 193 702 197 698.5 c 128,-1,3
 201 695 201 695 201 690 c 2,4,-1
 201 218 l 1,5,-1
 560 686 l 2,6,7
 573 702 573 702 593 702 c 2,8,-1
 720 702 l 2,9,10
 726 702 726 702 728.5 697 c 128,-1,11
 731 692 731 692 728 688 c 2,12,-1
 213 18 l 2,13,14
 200 2 200 2 180 2 c 2,15,-1
 85 2 l 2,16,17
 80 2 80 2 76.5 5.5 c 128,-1,18
 73 9 73 9 73 14 c 2,19,-1
 73 690 l 2,20,21
 73 695 73 695 76.5 698.5 c 128,-1,22
 80 702 80 702 85 702 c 2,0,-1
EndSplineSet
EndChar

StartChar: V
Encoding: 86 86 29
Width: 734
GlyphClass: 2
Flags: W
LayerCount: 2
Fore
SplineSet
16 702 m 2,0,-1
 143 702 l 2,1,2
 163 702 163 702 176 686 c 2,3,-1
 536 218 l 1,4,-1
 536 690 l 2,5,6
 536 695 536 695 539.5 698.5 c 128,-1,7
 543 702 543 702 548 702 c 2,8,-1
 651 702 l 2,9,10
 656 702 656 702 659.5 698.5 c 128,-1,11
 663 695 663 695 663 690 c 2,12,-1
 663 14 l 2,13,14
 663 2 663 2 651 2 c 2,15,-1
 556 2 l 2,16,17
 536 2 536 2 523 18 c 2,18,-1
 9 688 l 2,19,20
 5 692 5 692 8 697 c 128,-1,21
 11 702 11 702 16 702 c 2,0,-1
EndSplineSet
EndChar

StartChar: W
Encoding: 87 87 30
Width: 1234
GlyphClass: 2
Flags: W
LayerCount: 2
Fore
SplineSet
16 702 m 2,0,-1
 143 702 l 2,1,2
 163 702 163 702 176 686 c 2,3,-1
 536 218 l 1,4,-1
 536 690 l 2,5,6
 536 695 536 695 539.5 698.5 c 128,-1,7
 543 702 543 702 548 702 c 2,8,-1
 643 702 l 2,9,10
 663 702 663 702 676 686 c 2,11,-1
 1035 218 l 1,12,-1
 1035 690 l 2,13,14
 1035 695 1035 695 1039 698.5 c 128,-1,15
 1043 702 1043 702 1048 702 c 2,16,-1
 1151 702 l 2,17,18
 1156 702 1156 702 1159.5 698.5 c 128,-1,19
 1163 695 1163 695 1163 690 c 2,20,-1
 1163 14 l 2,21,22
 1163 2 1163 2 1151 2 c 2,23,-1
 1056 2 l 2,24,25
 1036 2 1036 2 1023 18 c 2,26,-1
 663 486 l 1,27,-1
 663 14 l 2,28,29
 663 2 663 2 651 2 c 2,30,-1
 556 2 l 2,31,32
 536 2 536 2 523 18 c 2,33,-1
 9 688 l 2,34,35
 5 692 5 692 8 697 c 128,-1,36
 11 702 11 702 16 702 c 2,0,-1
EndSplineSet
EndChar

StartChar: w
Encoding: 119 119 31
Width: 1234
GlyphClass: 2
Flags: W
LayerCount: 2
Fore
SplineSet
73 690 m 2,0,1
 73 695 73 695 76.5 698.5 c 128,-1,2
 80 702 80 702 85 702 c 2,3,-1
 188 702 l 2,4,5
 193 702 193 702 197 698.5 c 128,-1,6
 201 695 201 695 201 690 c 2,7,-1
 201 218 l 1,8,-1
 560 686 l 2,9,10
 573 702 573 702 593 702 c 2,11,-1
 688 702 l 2,12,13
 693 702 693 702 696.5 698.5 c 128,-1,14
 700 695 700 695 700 690 c 2,15,-1
 700 218 l 1,16,-1
 1060 686 l 2,17,18
 1073 702 1073 702 1093 702 c 2,19,-1
 1220 702 l 2,20,21
 1226 702 1226 702 1228.5 697 c 128,-1,22
 1231 692 1231 692 1227 688 c 2,23,-1
 713 18 l 2,24,25
 700 2 700 2 680 2 c 2,26,-1
 585 2 l 2,27,28
 573 2 573 2 573 14 c 2,29,-1
 573 486 l 1,30,-1
 213 18 l 2,31,32
 200 2 200 2 180 2 c 2,33,-1
 85 2 l 2,34,35
 80 2 80 2 76.5 5.5 c 128,-1,36
 73 9 73 9 73 14 c 2,37,-1
 73 690 l 2,0,1
EndSplineSet
EndChar

StartChar: X
Encoding: 88 88 32
Width: 697
GlyphClass: 2
Flags: W
LayerCount: 2
Fore
SplineSet
9 16 m 2,0,-1
 267 352 l 1,1,-1
 9 688 l 2,2,3
 5 692 5 692 8 697 c 128,-1,4
 11 702 11 702 16 702 c 2,5,-1
 143 702 l 2,6,7
 163 702 163 702 176 686 c 2,8,-1
 350 460 l 1,9,-1
 523 686 l 2,10,11
 536 702 536 702 556 702 c 2,12,-1
 683 702 l 2,13,14
 689 702 689 702 691.5 697 c 128,-1,15
 694 692 694 692 690 688 c 2,16,-1
 432 352 l 1,17,-1
 690 16 l 2,18,19
 694 11 694 11 691.5 6.5 c 128,-1,20
 689 2 689 2 683 2 c 2,21,-1
 556 2 l 2,22,23
 536 2 536 2 523 18 c 2,24,-1
 350 244 l 1,25,-1
 176 18 l 2,26,27
 163 2 163 2 143 2 c 2,28,-1
 16 2 l 2,29,30
 11 2 11 2 8 6.5 c 128,-1,31
 5 11 5 11 9 16 c 2,0,-1
EndSplineSet
EndChar

StartChar: y
Encoding: 121 121 33
Width: 760
GlyphClass: 2
Flags: W
LayerCount: 2
Fore
SplineSet
16 702 m 2,0,-1
 143 702 l 2,1,2
 163 702 163 702 176 686 c 2,3,-1
 381 419 l 1,4,-1
 586 686 l 2,5,6
 599 702 599 702 619 702 c 2,7,-1
 746 702 l 2,8,9
 752 702 752 702 754.5 697 c 128,-1,10
 757 692 757 692 753 688 c 2,11,-1
 239 18 l 2,12,13
 226 2 226 2 206 2 c 2,14,-1
 79 2 l 2,15,16
 74 2 74 2 71 6.5 c 128,-1,17
 68 11 68 11 72 16 c 2,18,-1
 298 311 l 1,19,-1
 9 688 l 2,20,21
 5 692 5 692 8 697 c 128,-1,22
 11 702 11 702 16 702 c 2,0,-1
EndSplineSet
EndChar

StartChar: Y
Encoding: 89 89 34
Width: 760
GlyphClass: 2
Flags: W
LayerCount: 2
Fore
SplineSet
16 702 m 2,0,-1
 143 702 l 2,1,2
 163 702 163 702 176 686 c 2,3,-1
 381 419 l 1,4,-1
 586 686 l 2,5,6
 599 702 599 702 619 702 c 2,7,-1
 746 702 l 2,8,9
 752 702 752 702 754.5 697 c 128,-1,10
 757 692 757 692 753 688 c 2,11,-1
 445 286 l 1,12,-1
 445 14 l 2,13,14
 445 9 445 9 441.5 5.5 c 128,-1,15
 438 2 438 2 433 2 c 2,16,-1
 330 2 l 2,17,18
 317 2 317 2 317 14 c 2,19,-1
 317 286 l 1,20,-1
 9 688 l 2,21,22
 5 692 5 692 8 697 c 128,-1,23
 11 702 11 702 16 702 c 2,0,-1
EndSplineSet
EndChar

StartChar: Z
Encoding: 90 90 35
Width: 582
GlyphClass: 2
Flags: W
LayerCount: 2
Fore
SplineSet
73 14 m 2,0,-1
 73 161 l 2,1,2
 73 176 73 176 82 186 c 2,3,-1
 380 575 l 1,4,-1
 85 575 l 2,5,6
 80 575 80 575 76.5 578.5 c 128,-1,7
 73 582 73 582 73 587 c 2,8,-1
 73 690 l 2,9,10
 73 695 73 695 76.5 698.5 c 128,-1,11
 80 702 80 702 85 702 c 2,12,-1
 499 702 l 2,13,14
 504 702 504 702 507.5 698.5 c 128,-1,15
 511 695 511 695 511 690 c 2,16,-1
 511 543 l 2,17,18
 511 529 511 529 502 518 c 2,19,-1
 204 129 l 1,20,-1
 499 129 l 2,21,22
 504 129 504 129 507.5 125.5 c 128,-1,23
 511 122 511 122 511 117 c 2,24,-1
 511 14 l 2,25,26
 511 9 511 9 507.5 5.5 c 128,-1,27
 504 2 504 2 499 2 c 2,28,-1
 85 2 l 2,29,30
 80 2 80 2 76.5 5.5 c 128,-1,31
 73 9 73 9 73 14 c 2,0,-1
EndSplineSet
EndChar

StartChar: zero
Encoding: 48 48 36
Width: 660
GlyphClass: 2
Flags: W
LayerCount: 2
Fore
SplineSet
73 12 m 2,0,-1
 73 687 l 2,1,2
 73 692 73 692 76.5 696 c 128,-1,3
 80 700 80 700 85 700 c 2,4,-1
 577 700 l 2,5,6
 589 700 589 700 589 687 c 2,7,-1
 589 12 l 2,8,9
 589 -1 589 -1 577 -1 c 2,10,-1
 85 -1 l 2,11,12
 80 -1 80 -1 76.5 3 c 128,-1,13
 73 7 73 7 73 12 c 2,0,-1
201 573 m 1,14,-1
 201 127 l 1,15,-1
 461 127 l 1,16,-1
 461 573 l 1,17,-1
 201 573 l 1,14,-1
EndSplineSet
EndChar

StartChar: one
Encoding: 49 49 37
Width: 338
GlyphClass: 2
Flags: W
LayerCount: 2
Fore
SplineSet
9 587 m 2,0,-1
 83 684 l 2,1,2
 96 700 96 700 116 700 c 2,3,-1
 255 700 l 2,4,5
 267 700 267 700 267 687 c 2,6,-1
 267 12 l 2,7,8
 267 -1 267 -1 255 -1 c 2,9,-1
 152 -1 l 2,10,11
 140 -1 140 -1 140 12 c 2,12,-1
 140 573 l 1,13,-1
 16 573 l 2,14,15
 11 573 11 573 8 577.5 c 128,-1,16
 5 582 5 582 9 587 c 2,0,-1
EndSplineSet
EndChar

StartChar: two
Encoding: 50 50 38
Width: 551
GlyphClass: 2
Flags: W
LayerCount: 2
Fore
SplineSet
40 587 m 2,0,-1
 114 684 l 2,1,2
 127 700 127 700 147 700 c 2,3,-1
 489 700 l 2,4,5
 494 700 494 700 497.5 696 c 128,-1,6
 501 692 501 692 501 687 c 2,7,-1
 501 536 l 2,8,9
 501 527 501 527 495 519 c 2,10,-1
 194 126 l 1,11,-1
 489 126 l 2,12,13
 494 126 494 126 497.5 122.5 c 128,-1,14
 501 119 501 119 501 114 c 2,15,-1
 501 12 l 2,16,17
 501 7 501 7 497.5 3 c 128,-1,18
 494 -1 494 -1 489 -1 c 2,19,-1
 75 -1 l 2,20,21
 70 -1 70 -1 66.5 3 c 128,-1,22
 63 7 63 7 63 12 c 2,23,-1
 63 172 l 1,24,-1
 371 573 l 1,25,-1
 47 573 l 2,26,27
 42 573 42 573 39 577.5 c 128,-1,28
 36 582 36 582 40 587 c 2,0,-1
EndSplineSet
EndChar

StartChar: three
Encoding: 51 51 39
Width: 568
GlyphClass: 2
Flags: W
LayerCount: 2
Fore
SplineSet
73 12 m 2,0,-1
 73 114 l 2,1,2
 73 119 73 119 76.5 122.5 c 128,-1,3
 80 126 80 126 85 126 c 2,4,-1
 367 126 l 1,5,-1
 201 342 l 2,6,7
 195 350 195 350 201 357 c 2,8,-1
 367 572 l 1,9,-1
 85 572 l 2,10,11
 80 572 80 572 76.5 576 c 128,-1,12
 73 580 73 580 73 585 c 2,13,-1
 73 687 l 2,14,15
 73 692 73 692 76.5 696 c 128,-1,16
 80 700 80 700 85 700 c 2,17,-1
 485 700 l 2,18,19
 497 700 497 700 497 687 c 2,20,-1
 497 541 l 2,21,22
 497 528 497 528 489 515 c 2,23,-1
 361 349 l 1,24,-1
 489 183 l 2,25,26
 497 172 497 172 497 158 c 2,27,-1
 497 12 l 2,28,29
 497 -1 497 -1 485 -1 c 2,30,-1
 85 -1 l 2,31,32
 80 -1 80 -1 76.5 3 c 128,-1,33
 73 7 73 7 73 12 c 2,0,-1
EndSplineSet
EndChar

StartChar: four
Encoding: 52 52 40
Width: 543
GlyphClass: 2
Flags: W
LayerCount: 2
Fore
SplineSet
28 366 m 2,0,-1
 272 684 l 2,1,2
 283 700 283 700 304 700 c 2,3,-1
 432 700 l 2,4,5
 437 700 437 700 439.5 695 c 128,-1,6
 442 690 442 690 439 685 c 2,7,-1
 149 309 l 1,8,-1
 483 309 l 2,9,10
 495 309 495 309 495 296 c 2,11,-1
 495 12 l 2,12,13
 495 -1 495 -1 483 -1 c 2,14,-1
 380 -1 l 2,15,16
 368 -1 368 -1 368 12 c 2,17,-1
 368 181 l 1,18,-1
 31 181 l 2,19,20
 26 181 26 181 22.5 185 c 128,-1,21
 19 189 19 189 19 194 c 2,22,-1
 19 341 l 2,23,24
 19 356 19 356 28 366 c 2,0,-1
EndSplineSet
EndChar

StartChar: five
Encoding: 53 53 41
Width: 590
GlyphClass: 2
Flags: W
LayerCount: 2
Fore
SplineSet
73 687 m 2,0,1
 73 692 73 692 76.5 696 c 128,-1,2
 80 700 80 700 85 700 c 2,3,-1
 507 700 l 2,4,5
 512 700 512 700 515.5 696 c 128,-1,6
 519 692 519 692 519 687 c 2,7,-1
 519 585 l 2,8,9
 519 580 519 580 515.5 576.5 c 128,-1,10
 512 573 512 573 507 573 c 2,11,-1
 201 573 l 1,12,-1
 201 454 l 1,13,-1
 507 454 l 2,14,15
 512 454 512 454 515.5 450.5 c 128,-1,16
 519 447 519 447 519 442 c 2,17,-1
 519 295 l 2,18,19
 519 281 519 281 510 270 c 2,20,-1
 315 16 l 2,21,22
 303 -1 303 -1 282 -1 c 2,23,-1
 155 -1 l 2,24,25
 150 -1 150 -1 147 4 c 128,-1,26
 144 9 144 9 148 14 c 2,27,-1
 388 327 l 1,28,-1
 85 327 l 2,29,30
 80 327 80 327 76.5 330.5 c 128,-1,31
 73 334 73 334 73 339 c 2,32,-1
 73 687 l 2,0,1
EndSplineSet
EndChar

StartChar: seven
Encoding: 55 55 42
Width: 562
GlyphClass: 2
Flags: W
LayerCount: 2
Fore
SplineSet
16 700 m 2,0,-1
 479 700 l 2,1,2
 491 700 491 700 491 687 c 2,3,-1
 491 12 l 2,4,5
 491 -1 491 -1 479 -1 c 2,6,-1
 376 -1 l 2,7,8
 364 -1 364 -1 364 12 c 2,9,-1
 364 573 l 1,10,-1
 116 573 l 2,11,12
 95 573 95 573 83 589 c 2,13,-1
 9 685 l 2,14,15
 5 690 5 690 8 695 c 128,-1,16
 11 700 11 700 16 700 c 2,0,-1
EndSplineSet
EndChar

StartChar: eight
Encoding: 56 56 43
Width: 663
GlyphClass: 2
Flags: W
LayerCount: 2
Fore
SplineSet
85 700 m 2,0,-1
 580 700 l 2,1,2
 585 700 585 700 588.5 696 c 128,-1,3
 592 692 592 692 592 687 c 2,4,-1
 592 541 l 2,5,6
 592 527 592 527 583 515 c 2,7,-1
 456 349 l 1,8,-1
 583 183 l 2,9,10
 592 173 592 173 592 158 c 2,11,-1
 592 12 l 2,12,13
 592 7 592 7 588.5 3 c 128,-1,14
 585 -1 585 -1 580 -1 c 2,15,-1
 85 -1 l 2,16,17
 80 -1 80 -1 76.5 3 c 128,-1,18
 73 7 73 7 73 12 c 2,19,-1
 73 158 l 2,20,21
 73 173 73 173 82 183 c 2,22,-1
 209 349 l 1,23,-1
 82 515 l 2,24,25
 73 527 73 527 73 541 c 2,26,-1
 73 687 l 2,27,28
 73 692 73 692 76.5 696 c 128,-1,29
 80 700 80 700 85 700 c 2,0,-1
204 572 m 1,30,-1
 333 405 l 1,31,-1
 461 572 l 1,32,-1
 204 572 l 1,30,-1
461 126 m 1,33,-1
 333 294 l 1,34,-1
 204 126 l 1,35,-1
 461 126 l 1,33,-1
EndSplineSet
EndChar

StartChar: hyphen
Encoding: 45 45 44
Width: 457
GlyphClass: 2
Flags: W
LayerCount: 2
Fore
SplineSet
86 414 m 2,0,-1
 373 414 l 2,1,2
 386 414 386 414 386 401 c 2,3,-1
 386 292 l 2,4,5
 386 279 386 279 373 279 c 2,6,-1
 86 279 l 2,7,8
 73 279 73 279 73 292 c 2,9,-1
 73 401 l 2,10,11
 73 414 73 414 86 414 c 2,0,-1
EndSplineSet
EndChar

StartChar: plus
Encoding: 43 43 45
Width: 463
GlyphClass: 2
Flags: W
LayerCount: 2
Fore
SplineSet
39 409 m 2,0,-1
 164 409 l 1,1,-1
 164 535 l 2,2,3
 164 548 164 548 177 548 c 2,4,-1
 286 548 l 2,5,6
 299 548 299 548 299 535 c 2,7,-1
 299 409 l 1,8,-1
 425 409 l 2,9,10
 438 409 438 409 438 396 c 2,11,-1
 438 287 l 2,12,13
 438 274 438 274 425 274 c 2,14,-1
 299 274 l 1,15,-1
 299 149 l 2,16,17
 299 136 299 136 286 136 c 2,18,-1
 177 136 l 2,19,20
 164 136 164 136 164 149 c 2,21,-1
 164 274 l 1,22,-1
 39 274 l 2,23,24
 26 274 26 274 26 287 c 2,25,-1
 26 396 l 2,26,27
 26 409 26 409 39 409 c 2,0,-1
EndSplineSet
EndChar

StartChar: exclam
Encoding: 33 33 46
Width: 272
GlyphClass: 2
Flags: W
LayerCount: 2
Fore
SplineSet
73 298 m 2,0,-1
 73 687 l 2,1,2
 73 692 73 692 76.5 696 c 128,-1,3
 80 700 80 700 85 700 c 2,4,-1
 188 700 l 2,5,6
 201 700 201 700 201 687 c 2,7,-1
 201 298 l 2,8,9
 201 286 201 286 188 286 c 2,10,-1
 85 286 l 2,11,12
 80 286 80 286 76.5 289.5 c 128,-1,13
 73 293 73 293 73 298 c 2,0,-1
85 127 m 2,14,-1
 188 127 l 2,15,16
 201 127 201 127 201 115 c 2,17,-1
 201 12 l 2,18,19
 201 -1 201 -1 188 -1 c 2,20,-1
 85 -1 l 2,21,22
 80 -1 80 -1 76.5 3 c 128,-1,23
 73 7 73 7 73 12 c 2,24,-1
 73 115 l 2,25,26
 73 120 73 120 76.5 123.5 c 128,-1,27
 80 127 80 127 85 127 c 2,14,-1
EndSplineSet
EndChar

StartChar: question
Encoding: 63 63 47
Width: 620
GlyphClass: 2
Flags: W
LayerCount: 2
Fore
SplineSet
73 585 m 2,0,-1
 73 687 l 2,1,2
 73 692 73 692 76.5 696 c 128,-1,3
 80 700 80 700 85 700 c 2,4,-1
 537 700 l 2,5,6
 549 700 549 700 549 687 c 2,7,-1
 549 540 l 2,8,9
 549 526 549 526 541 515 c 2,10,-1
 377 302 l 2,11,12
 364 286 364 286 344 286 c 2,13,-1
 217 286 l 2,14,15
 211 286 211 286 208.5 290.5 c 128,-1,16
 206 295 206 295 210 300 c 2,17,-1
 419 573 l 1,18,-1
 85 573 l 2,19,20
 80 573 80 573 76.5 576.5 c 128,-1,21
 73 580 73 580 73 585 c 2,0,-1
207 12 m 2,22,-1
 207 123 l 2,23,24
 207 128 207 128 210.5 131.5 c 128,-1,25
 214 135 214 135 219 135 c 2,26,-1
 332 135 l 2,27,28
 344 135 344 135 344 123 c 2,29,-1
 344 12 l 2,30,31
 344 -1 344 -1 332 -1 c 2,32,-1
 219 -1 l 2,33,34
 214 -1 214 -1 210.5 3 c 128,-1,35
 207 7 207 7 207 12 c 2,22,-1
EndSplineSet
EndChar

StartChar: colon
Encoding: 58 58 48
Width: 278
GlyphClass: 2
Flags: W
LayerCount: 2
Fore
SplineSet
84 569 m 2,0,-1
 194 569 l 2,1,2
 207 569 207 569 207 555 c 2,3,-1
 207 446 l 2,4,5
 207 433 207 433 194 433 c 2,6,-1
 84 433 l 2,7,8
 71 433 71 433 71 446 c 2,9,-1
 71 555 l 2,10,11
 71 569 71 569 84 569 c 2,0,-1
84 264 m 2,12,-1
 194 264 l 2,13,14
 207 264 207 264 207 251 c 2,15,-1
 207 141 l 2,16,17
 207 128 207 128 194 128 c 2,18,-1
 84 128 l 2,19,20
 71 128 71 128 71 141 c 2,21,-1
 71 251 l 2,22,23
 71 264 71 264 84 264 c 2,12,-1
EndSplineSet
EndChar

StartChar: semicolon
Encoding: 59 59 49
Width: 270
GlyphClass: 2
Flags: W
LayerCount: 2
Fore
SplineSet
83 223 m 2,0,-1
 186 223 l 2,1,2
 199 223 199 223 199 211 c 2,3,-1
 199 12 l 2,4,5
 199 -1 199 -1 186 -1 c 2,6,-1
 83 -1 l 2,7,8
 78 -1 78 -1 74.5 3 c 128,-1,9
 71 7 71 7 71 12 c 2,10,-1
 71 211 l 2,11,12
 71 216 71 216 74.5 219.5 c 128,-1,13
 78 223 78 223 83 223 c 2,0,-1
83 556 m 2,14,-1
 186 556 l 2,15,16
 199 556 199 556 199 544 c 2,17,-1
 199 441 l 2,18,19
 199 429 199 429 186 429 c 2,20,-1
 83 429 l 2,21,22
 78 429 78 429 74.5 432.5 c 128,-1,23
 71 436 71 436 71 441 c 2,24,-1
 71 544 l 2,25,26
 71 549 71 549 74.5 552.5 c 128,-1,27
 78 556 78 556 83 556 c 2,14,-1
EndSplineSet
EndChar

StartChar: period
Encoding: 46 46 50
Width: 277
GlyphClass: 2
Flags: W
LayerCount: 2
Fore
SplineSet
84 135 m 2,0,-1
 193 135 l 2,1,2
 206 135 206 135 206 122 c 2,3,-1
 206 12 l 2,4,5
 206 -1 206 -1 193 -1 c 2,6,-1
 84 -1 l 2,7,8
 71 -1 71 -1 71 12 c 2,9,-1
 71 122 l 2,10,11
 71 135 71 135 84 135 c 2,0,-1
EndSplineSet
EndChar

StartChar: comma
Encoding: 44 44 51
Width: 278
GlyphClass: 2
Flags: W
LayerCount: 2
Fore
SplineSet
84 135 m 2,0,-1
 194 135 l 2,1,2
 207 135 207 135 207 122 c 2,3,-1
 207 -102 l 2,4,5
 207 -115 207 -115 194 -115 c 2,6,-1
 84 -115 l 2,7,8
 71 -115 71 -115 71 -102 c 2,9,-1
 71 122 l 2,10,11
 71 135 71 135 84 135 c 2,0,-1
EndSplineSet
EndChar

StartChar: slash
Encoding: 47 47 52
Width: 697
GlyphClass: 2
Flags: W
LayerCount: 2
Fore
SplineSet
9 14 m 2,0,-1
 523 684 l 2,1,2
 536 700 536 700 556 700 c 2,3,-1
 683 700 l 2,4,5
 689 700 689 700 691.5 695 c 128,-1,6
 694 690 694 690 690 685 c 2,7,-1
 176 16 l 2,8,9
 164 -1 164 -1 143 -1 c 2,10,-1
 16 -1 l 2,11,12
 11 -1 11 -1 8 4 c 128,-1,13
 5 9 5 9 9 14 c 2,0,-1
EndSplineSet
EndChar

StartChar: backslash
Encoding: 92 92 53
Width: 697
GlyphClass: 2
Flags: W
LayerCount: 2
Fore
SplineSet
16 700 m 2,0,-1
 143 700 l 2,1,2
 163 700 163 700 176 684 c 2,3,-1
 690 14 l 2,4,5
 694 9 694 9 691.5 4 c 128,-1,6
 689 -1 689 -1 683 -1 c 2,7,-1
 556 -1 l 2,8,9
 535 -1 535 -1 523 16 c 2,10,-1
 9 685 l 2,11,12
 5 690 5 690 8 695 c 128,-1,13
 11 700 11 700 16 700 c 2,0,-1
EndSplineSet
EndChar

StartChar: parenleft
Encoding: 40 40 54
Width: 445
GlyphClass: 2
Flags: W
LayerCount: 2
Fore
SplineSet
21 357 m 2,0,-1
 271 684 l 2,1,2
 284 700 284 700 304 700 c 2,3,-1
 431 700 l 2,4,5
 437 700 437 700 439.5 695 c 128,-1,6
 442 690 442 690 439 685 c 2,7,-1
 181 350 l 1,8,-1
 439 14 l 2,9,10
 442 9 442 9 439.5 4 c 128,-1,11
 437 -1 437 -1 431 -1 c 2,12,-1
 304 -1 l 2,13,14
 283 -1 283 -1 271 16 c 2,15,-1
 21 342 l 2,16,17
 14 350 14 350 21 357 c 2,0,-1
EndSplineSet
EndChar

StartChar: parenright
Encoding: 41 41 55
Width: 446
GlyphClass: 2
Flags: W
LayerCount: 2
Fore
SplineSet
16 700 m 2,0,-1
 143 700 l 2,1,2
 163 700 163 700 176 684 c 2,3,-1
 427 357 l 2,4,5
 433 350 433 350 427 342 c 2,6,-1
 176 16 l 2,7,8
 164 -1 164 -1 143 -1 c 2,9,-1
 16 -1 l 2,10,11
 11 -1 11 -1 8 4 c 128,-1,12
 5 9 5 9 9 14 c 2,13,-1
 267 350 l 1,14,-1
 9 685 l 2,15,16
 5 690 5 690 8 695 c 128,-1,17
 11 700 11 700 16 700 c 2,0,-1
EndSplineSet
EndChar

StartChar: K
Encoding: 75 75 56
Width: 666
GlyphClass: 2
Flags: W
LayerCount: 2
Fore
SplineSet
241 357 m 2,0,-1
 492 684 l 2,1,2
 505 700 505 700 525 700 c 2,3,-1
 652 700 l 2,4,5
 658 700 658 700 660.5 695.5 c 128,-1,6
 663 691 663 691 660 686 c 2,7,-1
 402 350 l 1,8,-1
 659 14 l 2,9,10
 663 9 663 9 660.5 4.5 c 128,-1,11
 658 0 658 0 652 0 c 2,12,-1
 525 0 l 2,13,14
 505 0 505 0 492 16 c 2,15,-1
 241 342 l 2,16,17
 236 350 236 350 241 357 c 2,0,-1
73 688 m 2,18,19
 73 693 73 693 76.5 696.5 c 128,-1,20
 80 700 80 700 85 700 c 2,21,-1
 188 700 l 2,22,23
 201 700 201 700 201 688 c 2,24,-1
 201 12 l 2,25,26
 201 0 201 0 188 0 c 2,27,-1
 85 0 l 2,28,29
 80 0 80 0 76.5 3.5 c 128,-1,30
 73 7 73 7 73 12 c 2,31,-1
 73 688 l 2,18,19
EndSplineSet
EndChar

StartChar: bar
Encoding: 124 124 57
Width: 272
GlyphClass: 2
Flags: W
LayerCount: 2
Fore
SplineSet
85 700 m 2,0,-1
 188 700 l 2,1,2
 201 700 201 700 201 688 c 2,3,-1
 201 12 l 2,4,5
 201 0 201 0 188 0 c 2,6,-1
 85 0 l 2,7,8
 80 0 80 0 76.5 3.5 c 128,-1,9
 73 7 73 7 73 12 c 2,10,-1
 73 688 l 2,11,12
 73 693 73 693 76.5 696.5 c 128,-1,13
 80 700 80 700 85 700 c 2,0,-1
EndSplineSet
EndChar

StartChar: less
Encoding: 60 60 58
Width: 445
GlyphClass: 2
Flags: W
LayerCount: 2
Fore
SplineSet
21 357 m 2,0,-1
 271 684 l 2,1,2
 284 700 284 700 304 700 c 2,3,-1
 431 700 l 2,4,5
 437 700 437 700 439.5 695 c 128,-1,6
 442 690 442 690 439 685 c 2,7,-1
 181 350 l 1,8,-1
 439 14 l 2,9,10
 442 9 442 9 439.5 4 c 128,-1,11
 437 -1 437 -1 431 -1 c 2,12,-1
 304 -1 l 2,13,14
 283 -1 283 -1 271 16 c 2,15,-1
 21 342 l 2,16,17
 14 350 14 350 21 357 c 2,0,-1
EndSplineSet
EndChar

StartChar: greater
Encoding: 62 62 59
Width: 446
GlyphClass: 2
Flags: W
LayerCount: 2
Fore
SplineSet
16 700 m 2,0,-1
 143 700 l 2,1,2
 163 700 163 700 176 684 c 2,3,-1
 427 357 l 2,4,5
 433 350 433 350 427 342 c 2,6,-1
 176 16 l 2,7,8
 164 -1 164 -1 143 -1 c 2,9,-1
 16 -1 l 2,10,11
 11 -1 11 -1 8 4 c 128,-1,12
 5 9 5 9 9 14 c 2,13,-1
 267 350 l 1,14,-1
 9 685 l 2,15,16
 5 690 5 690 8 695 c 128,-1,17
 11 700 11 700 16 700 c 2,0,-1
EndSplineSet
EndChar

StartChar: quotesingle
Encoding: 39 39 60
Width: 278
GlyphClass: 2
Flags: W
LayerCount: 2
Fore
SplineSet
84 700 m 2,0,-1
 194 700 l 2,1,2
 207 700 207 700 207 687 c 2,3,-1
 207 463 l 2,4,5
 207 450 207 450 194 450 c 2,6,-1
 84 450 l 2,7,8
 71 450 71 450 71 463 c 2,9,-1
 71 687 l 2,10,11
 71 700 71 700 84 700 c 2,0,-1
EndSplineSet
EndChar

StartChar: quotedbl
Encoding: 34 34 61
Width: 481
GlyphClass: 2
Flags: W
LayerCount: 2
Fore
SplineSet
84 700 m 2,0,-1
 194 700 l 2,1,2
 207 700 207 700 207 687 c 2,3,-1
 207 463 l 2,4,5
 207 450 207 450 194 450 c 2,6,-1
 84 450 l 2,7,8
 71 450 71 450 71 463 c 2,9,-1
 71 687 l 2,10,11
 71 700 71 700 84 700 c 2,0,-1
276 463 m 2,12,-1
 276 687 l 2,13,14
 276 700 276 700 289 700 c 2,15,-1
 399 700 l 2,16,17
 412 700 412 700 412 687 c 2,18,-1
 412 463 l 2,19,20
 412 450 412 450 399 450 c 2,21,-1
 289 450 l 2,22,23
 276 450 276 450 276 463 c 2,12,-1
EndSplineSet
EndChar

StartChar: quoteleft
Encoding: 8216 8216 62
Width: 278
GlyphClass: 2
Flags: W
LayerCount: 2
Fore
SplineSet
84 700 m 2,0,-1
 194 700 l 2,1,2
 207 700 207 700 207 687 c 2,3,-1
 207 463 l 2,4,5
 207 450 207 450 194 450 c 2,6,-1
 84 450 l 2,7,8
 71 450 71 450 71 463 c 2,9,-1
 71 687 l 2,10,11
 71 700 71 700 84 700 c 2,0,-1
EndSplineSet
EndChar

StartChar: quoteright
Encoding: 8217 8217 63
Width: 278
GlyphClass: 2
Flags: W
LayerCount: 2
Fore
SplineSet
84 700 m 2,0,-1
 194 700 l 2,1,2
 207 700 207 700 207 687 c 2,3,-1
 207 463 l 2,4,5
 207 450 207 450 194 450 c 2,6,-1
 84 450 l 2,7,8
 71 450 71 450 71 463 c 2,9,-1
 71 687 l 2,10,11
 71 700 71 700 84 700 c 2,0,-1
EndSplineSet
EndChar

StartChar: quotedblleft
Encoding: 8220 8220 64
Width: 481
GlyphClass: 2
Flags: W
LayerCount: 2
Fore
SplineSet
84 700 m 2,0,-1
 194 700 l 2,1,2
 207 700 207 700 207 687 c 2,3,-1
 207 463 l 2,4,5
 207 450 207 450 194 450 c 2,6,-1
 84 450 l 2,7,8
 71 450 71 450 71 463 c 2,9,-1
 71 687 l 2,10,11
 71 700 71 700 84 700 c 2,0,-1
276 463 m 2,12,-1
 276 687 l 2,13,14
 276 700 276 700 289 700 c 2,15,-1
 399 700 l 2,16,17
 412 700 412 700 412 687 c 2,18,-1
 412 463 l 2,19,20
 412 450 412 450 399 450 c 2,21,-1
 289 450 l 2,22,23
 276 450 276 450 276 463 c 2,12,-1
EndSplineSet
EndChar

StartChar: quotedblright
Encoding: 8221 8221 65
Width: 481
GlyphClass: 2
Flags: W
LayerCount: 2
Fore
SplineSet
84 700 m 2,0,-1
 194 700 l 2,1,2
 207 700 207 700 207 687 c 2,3,-1
 207 463 l 2,4,5
 207 450 207 450 194 450 c 2,6,-1
 84 450 l 2,7,8
 71 450 71 450 71 463 c 2,9,-1
 71 687 l 2,10,11
 71 700 71 700 84 700 c 2,0,-1
276 463 m 2,12,-1
 276 687 l 2,13,14
 276 700 276 700 289 700 c 2,15,-1
 399 700 l 2,16,17
 412 700 412 700 412 687 c 2,18,-1
 412 463 l 2,19,20
 412 450 412 450 399 450 c 2,21,-1
 289 450 l 2,22,23
 276 450 276 450 276 463 c 2,12,-1
EndSplineSet
EndChar

StartChar: endash
Encoding: 8211 8211 66
Width: 459
GlyphClass: 2
Flags: W
LayerCount: 2
Fore
SplineSet
86 414 m 2,0,-1
 373 414 l 2,1,2
 386 414 386 414 386 401 c 2,3,-1
 386 292 l 2,4,5
 386 279 386 279 373 279 c 2,6,-1
 86 279 l 2,7,8
 73 279 73 279 73 292 c 2,9,-1
 73 401 l 2,10,11
 73 414 73 414 86 414 c 2,0,-1
EndSplineSet
EndChar

StartChar: emdash
Encoding: 8212 8212 67
Width: 580
GlyphClass: 2
Flags: W
LayerCount: 2
Fore
SplineSet
86 414 m 2,0,-1
 494 414 l 2,1,2
 507 414 507 414 507 401 c 2,3,-1
 507 292 l 2,4,5
 507 279 507 279 494 279 c 2,6,-1
 86 279 l 2,7,8
 73 279 73 279 73 292 c 2,9,-1
 73 401 l 2,10,11
 73 414 73 414 86 414 c 2,0,-1
EndSplineSet
EndChar

StartChar: underscore
Encoding: 95 95 68
Width: 701
GlyphClass: 2
Flags: W
LayerCount: 2
Fore
SplineSet
86 135 m 2,0,-1
 615 135 l 2,1,2
 628 135 628 135 628 122 c 2,3,-1
 628 13 l 2,4,5
 628 0 628 0 615 0 c 2,6,-1
 86 0 l 2,7,8
 73 0 73 0 73 13 c 2,9,-1
 73 122 l 2,10,11
 73 135 73 135 86 135 c 2,0,-1
EndSplineSet
EndChar

StartChar: b
Encoding: 98 98 69
Width: 696
GlyphClass: 2
Flags: W
LayerCount: 2
Fore
SplineSet
85 700 m 2,0,-1
 613 700 l 2,1,2
 625 700 625 700 625 688 c 2,3,-1
 625 541 l 2,4,5
 625 527 625 527 617 516 c 2,6,-1
 489 350 l 1,7,-1
 617 184 l 2,8,9
 625 173 625 173 625 159 c 2,10,-1
 625 12 l 2,11,12
 625 0 625 0 613 0 c 2,13,-1
 85 0 l 2,14,15
 80 0 80 0 76.5 3.5 c 128,-1,16
 73 7 73 7 73 12 c 2,17,-1
 73 688 l 2,18,19
 73 693 73 693 76.5 696.5 c 128,-1,20
 80 700 80 700 85 700 c 2,0,-1
494 127 m 1,21,-1
 329 342 l 2,22,23
 324 350 324 350 329 357 c 2,24,-1
 494 573 l 1,25,-1
 201 573 l 1,26,-1
 201 127 l 1,27,-1
 494 127 l 1,21,-1
EndSplineSet
EndChar

StartChar: c
Encoding: 99 99 70
Width: 717
GlyphClass: 2
Flags: W
LayerCount: 2
Fore
SplineSet
45 353 m 256,0,1
 45 430 45 430 73.5 496 c 128,-1,2
 102 562 102 562 150.5 611 c 128,-1,3
 199 660 199 660 265 687.5 c 128,-1,4
 331 715 331 715 407 714 c 0,5,6
 488 713 488 713 556.5 681 c 128,-1,7
 625 649 625 649 675 593 c 0,8,9
 678 589 678 589 677.5 584 c 128,-1,10
 677 579 677 579 673 576 c 2,11,-1
 594 509 l 2,12,13
 590 506 590 506 585 506.5 c 128,-1,14
 580 507 580 507 577 511 c 0,15,16
 544 549 544 549 499 571.5 c 128,-1,17
 454 594 454 594 402 593 c 0,18,19
 355 592 355 592 313 572.5 c 128,-1,20
 271 553 271 553 240 519.5 c 128,-1,21
 209 486 209 486 191 442 c 128,-1,22
 173 398 173 398 173 348 c 256,23,24
 173 298 173 298 192 254 c 128,-1,25
 211 210 211 210 243 177 c 128,-1,26
 275 144 275 144 317 125.5 c 128,-1,27
 359 107 359 107 407 107 c 0,28,29
 457 108 457 108 501 130 c 128,-1,30
 545 152 545 152 577 190 c 0,31,32
 580 194 580 194 585 194.5 c 128,-1,33
 590 195 590 195 594 191 c 2,34,-1
 673 124 l 2,35,36
 677 121 677 121 677.5 116 c 128,-1,37
 678 111 678 111 675 107 c 0,38,39
 624 50 624 50 554 17.5 c 128,-1,40
 484 -15 484 -15 401 -14 c 0,41,42
 326 -14 326 -14 260.5 14.5 c 128,-1,43
 195 43 195 43 147 92.5 c 128,-1,44
 99 142 99 142 72 209 c 128,-1,45
 45 276 45 276 45 353 c 256,0,1
EndSplineSet
EndChar

StartChar: g
Encoding: 103 103 71
Width: 809
GlyphClass: 2
Flags: W
LayerCount: 2
Fore
SplineSet
45 353 m 256,0,1
 45 430 45 430 73.5 496.5 c 128,-1,2
 102 563 102 563 150.5 611.5 c 128,-1,3
 199 660 199 660 265 687.5 c 128,-1,4
 331 715 331 715 407 714 c 0,5,6
 480 713 480 713 544 686.5 c 128,-1,7
 608 660 608 660 656 613 c 0,8,9
 664 605 664 605 657 597 c 2,10,-1
 593 514 l 2,11,12
 590 509 590 509 584.5 508.5 c 128,-1,13
 579 508 579 508 575 513 c 0,14,15
 543 550 543 550 498 572 c 128,-1,16
 453 594 453 594 402 593 c 0,17,18
 355 593 355 593 313 573 c 128,-1,19
 271 553 271 553 240 520 c 128,-1,20
 209 487 209 487 191 442.5 c 128,-1,21
 173 398 173 398 173 348 c 0,22,23
 173 299 173 299 192 255 c 128,-1,24
 211 211 211 211 243 178 c 128,-1,25
 275 145 275 145 317 126 c 128,-1,26
 359 107 359 107 407 107 c 0,27,28
 446 108 446 108 481.5 122 c 128,-1,29
 517 136 517 136 546.5 160 c 128,-1,30
 576 184 576 184 597 216.5 c 128,-1,31
 618 249 618 249 628 287 c 1,32,-1
 433 287 l 2,33,34
 428 287 428 287 425.5 291.5 c 128,-1,35
 423 296 423 296 426 301 c 2,36,-1
 490 395 l 2,37,38
 503 413 503 413 524 413 c 2,39,-1
 761 413 l 1,40,41
 764 396 764 396 765.5 380 c 128,-1,42
 767 364 767 364 766 347 c 0,43,44
 765 271 765 271 736.5 205 c 128,-1,45
 708 139 708 139 658.5 90 c 128,-1,46
 609 41 609 41 543 13.5 c 128,-1,47
 477 -14 477 -14 401 -14 c 0,48,49
 326 -14 326 -14 260.5 14.5 c 128,-1,50
 195 43 195 43 147 92.5 c 128,-1,51
 99 142 99 142 72 209 c 128,-1,52
 45 276 45 276 45 353 c 256,0,1
EndSplineSet
EndChar

StartChar: h
Encoding: 104 104 72
Width: 687
GlyphClass: 2
Flags: W
LayerCount: 2
Fore
SplineSet
73 12 m 2,0,-1
 73 688 l 2,1,2
 73 693 73 693 76.5 696.5 c 128,-1,3
 80 700 80 700 85 700 c 2,4,-1
 188 700 l 2,5,6
 201 700 201 700 201 688 c 2,7,-1
 201 413 l 1,8,-1
 488 413 l 1,9,-1
 488 688 l 2,10,11
 488 693 488 693 491.5 696.5 c 128,-1,12
 495 700 495 700 500 700 c 2,13,-1
 604 700 l 2,14,15
 609 700 609 700 612.5 696.5 c 128,-1,16
 616 693 616 693 616 688 c 2,17,-1
 616 12 l 2,18,19
 616 7 616 7 612.5 3.5 c 128,-1,20
 609 0 609 0 604 0 c 2,21,-1
 500 0 l 2,22,23
 495 0 495 0 491.5 3.5 c 128,-1,24
 488 7 488 7 488 12 c 2,25,-1
 488 286 l 1,26,-1
 201 286 l 1,27,-1
 201 12 l 2,28,29
 201 0 201 0 188 0 c 2,30,-1
 85 0 l 2,31,32
 80 0 80 0 76.5 3.5 c 128,-1,33
 73 7 73 7 73 12 c 2,0,-1
EndSplineSet
EndChar

StartChar: i
Encoding: 105 105 73
Width: 272
GlyphClass: 2
Flags: W
LayerCount: 2
Fore
SplineSet
85 700 m 2,0,-1
 188 700 l 2,1,2
 201 700 201 700 201 688 c 2,3,-1
 201 12 l 2,4,5
 201 0 201 0 188 0 c 2,6,-1
 85 0 l 2,7,8
 80 0 80 0 76.5 3.5 c 128,-1,9
 73 7 73 7 73 12 c 2,10,-1
 73 688 l 2,11,12
 73 693 73 693 76.5 696.5 c 128,-1,13
 80 700 80 700 85 700 c 2,0,-1
EndSplineSet
EndChar

StartChar: k
Encoding: 107 107 74
Width: 666
GlyphClass: 2
Flags: W
LayerCount: 2
Fore
SplineSet
241 357 m 2,0,-1
 492 684 l 2,1,2
 505 700 505 700 525 700 c 2,3,-1
 652 700 l 2,4,5
 658 700 658 700 660.5 695.5 c 128,-1,6
 663 691 663 691 660 686 c 2,7,-1
 402 350 l 1,8,-1
 659 14 l 2,9,10
 663 9 663 9 660.5 4.5 c 128,-1,11
 658 0 658 0 652 0 c 2,12,-1
 525 0 l 2,13,14
 505 0 505 0 492 16 c 2,15,-1
 241 342 l 2,16,17
 236 350 236 350 241 357 c 2,0,-1
73 688 m 2,18,19
 73 693 73 693 76.5 696.5 c 128,-1,20
 80 700 80 700 85 700 c 2,21,-1
 188 700 l 2,22,23
 201 700 201 700 201 688 c 2,24,-1
 201 12 l 2,25,26
 201 0 201 0 188 0 c 2,27,-1
 85 0 l 2,28,29
 80 0 80 0 76.5 3.5 c 128,-1,30
 73 7 73 7 73 12 c 2,31,-1
 73 688 l 2,18,19
EndSplineSet
EndChar

StartChar: l
Encoding: 108 108 75
Width: 495
GlyphClass: 2
Flags: W
LayerCount: 2
Fore
SplineSet
85 700 m 2,0,-1
 188 700 l 2,1,2
 201 700 201 700 201 688 c 2,3,-1
 201 127 l 1,4,-1
 481 127 l 2,5,6
 487 127 487 127 489.5 122 c 128,-1,7
 492 117 492 117 489 113 c 2,8,-1
 414 16 l 2,9,10
 401 0 401 0 382 0 c 2,11,-1
 85 0 l 2,12,13
 80 0 80 0 76.5 3.5 c 128,-1,14
 73 7 73 7 73 12 c 2,15,-1
 73 688 l 2,16,17
 73 693 73 693 76.5 696.5 c 128,-1,18
 80 700 80 700 85 700 c 2,0,-1
EndSplineSet
EndChar

StartChar: n
Encoding: 110 110 76
Width: 771
GlyphClass: 2
Flags: W
LayerCount: 2
Fore
SplineSet
73 12 m 2,0,-1
 73 688 l 2,1,2
 73 693 73 693 76.5 696.5 c 128,-1,3
 80 700 80 700 85 700 c 2,4,-1
 180 700 l 2,5,6
 200 700 200 700 213 684 c 2,7,-1
 573 216 l 1,8,-1
 573 688 l 2,9,10
 573 700 573 700 585 700 c 2,11,-1
 688 700 l 2,12,13
 700 700 700 700 700 688 c 2,14,-1
 700 12 l 2,15,16
 700 0 700 0 688 0 c 2,17,-1
 593 0 l 2,18,19
 573 0 573 0 560 16 c 2,20,-1
 201 484 l 1,21,-1
 201 12 l 2,22,23
 201 0 201 0 188 0 c 2,24,-1
 85 0 l 2,25,26
 80 0 80 0 76.5 3.5 c 128,-1,27
 73 7 73 7 73 12 c 2,0,-1
EndSplineSet
EndChar

StartChar: o
Encoding: 111 111 77
Width: 809
GlyphClass: 2
Flags: W
LayerCount: 2
Fore
SplineSet
45 353 m 256,0,1
 45 430 45 430 73.5 496.5 c 128,-1,2
 102 563 102 563 150.5 611.5 c 128,-1,3
 199 660 199 660 265 687.5 c 128,-1,4
 331 715 331 715 407 714 c 256,5,6
 483 713 483 713 549 684 c 128,-1,7
 615 655 615 655 663.5 605 c 128,-1,8
 712 555 712 555 740 488.5 c 128,-1,9
 768 422 768 422 767 347 c 0,10,11
 766 271 766 271 737 205 c 128,-1,12
 708 139 708 139 658.5 90 c 128,-1,13
 609 41 609 41 543 13.5 c 128,-1,14
 477 -14 477 -14 401 -14 c 0,15,16
 326 -14 326 -14 260.5 14.5 c 128,-1,17
 195 43 195 43 147 92.5 c 128,-1,18
 99 142 99 142 72 209 c 128,-1,19
 45 276 45 276 45 353 c 256,0,1
173 348 m 0,20,21
 173 299 173 299 192 255 c 128,-1,22
 211 211 211 211 243 178 c 128,-1,23
 275 145 275 145 317 126 c 128,-1,24
 359 107 359 107 407 107 c 0,25,26
 454 108 454 108 496 128 c 128,-1,27
 538 148 538 148 569.5 181.5 c 128,-1,28
 601 215 601 215 619 259.5 c 128,-1,29
 637 304 637 304 636 353 c 0,30,31
 636 402 636 402 617 446 c 128,-1,32
 598 490 598 490 566 522.5 c 128,-1,33
 534 555 534 555 491.5 574 c 128,-1,34
 449 593 449 593 402 593 c 0,35,36
 355 592 355 592 313 572.5 c 128,-1,37
 271 553 271 553 240 519.5 c 128,-1,38
 209 486 209 486 191 442 c 128,-1,39
 173 398 173 398 173 348 c 0,20,21
EndSplineSet
EndChar

StartChar: p
Encoding: 112 112 78
Width: 656
GlyphClass: 2
Flags: W
LayerCount: 2
Fore
SplineSet
73 14 m 2,0,-1
 73 690 l 2,1,2
 73 695 73 695 76.5 698.5 c 128,-1,3
 80 702 80 702 85 702 c 2,4,-1
 613 702 l 2,5,6
 618 702 618 702 621.5 698.5 c 128,-1,7
 625 695 625 695 625 690 c 2,8,-1
 625 543 l 2,9,10
 625 529 625 529 616 518 c 2,11,-1
 470 327 l 2,12,13
 457 311 457 311 437 311 c 2,14,-1
 310 311 l 2,15,16
 304 311 304 311 301.5 315.5 c 128,-1,17
 299 320 299 320 303 325 c 2,18,-1
 495 575 l 1,19,-1
 201 575 l 1,20,-1
 201 14 l 2,21,22
 201 2 201 2 188 2 c 2,23,-1
 85 2 l 2,24,25
 80 2 80 2 76.5 5.5 c 128,-1,26
 73 9 73 9 73 14 c 2,0,-1
EndSplineSet
EndChar

StartChar: q
Encoding: 113 113 79
Width: 809
GlyphClass: 2
Flags: W
LayerCount: 2
Fore
SplineSet
44 354 m 0,0,1
 44 409 44 409 59.5 461 c 128,-1,2
 75 513 75 513 104 557 c 128,-1,3
 133 601 133 601 174 635.5 c 128,-1,4
 215 670 215 670 267 690 c 0,5,6
 333 717 333 717 408 716 c 0,7,8
 483 716 483 716 549 686.5 c 128,-1,9
 615 657 615 657 664 607 c 128,-1,10
 713 557 713 557 740.5 490.5 c 128,-1,11
 768 424 768 424 767 348 c 0,12,13
 766 287 766 287 747.5 232.5 c 128,-1,14
 729 178 729 178 696 133 c 1,15,-1
 787 15 l 2,16,17
 790 10 790 10 787.5 5 c 128,-1,18
 785 0 785 0 780 0 c 2,19,-1
 652 0 l 2,20,21
 632 0 632 0 619 16 c 2,22,-1
 599 43 l 1,23,24
 556 16 556 16 506 1 c 128,-1,25
 456 -14 456 -14 401 -14 c 0,26,27
 325 -14 325 -14 259.5 15 c 128,-1,28
 194 44 194 44 146 93.5 c 128,-1,29
 98 143 98 143 71 210 c 128,-1,30
 44 277 44 277 44 354 c 0,0,1
173 349 m 0,31,32
 173 300 173 300 192 256 c 128,-1,33
 211 212 211 212 243 179 c 128,-1,34
 275 146 275 146 317 127 c 128,-1,35
 359 108 359 108 407 108 c 0,36,37
 457 109 457 109 499 129.5 c 128,-1,38
 541 150 541 150 571.5 184 c 128,-1,39
 602 218 602 218 619.5 262 c 128,-1,40
 637 306 637 306 637 354 c 0,41,42
 637 404 637 404 618 447.5 c 128,-1,43
 599 491 599 491 566.5 524 c 128,-1,44
 534 557 534 557 491.5 576 c 128,-1,45
 449 595 449 595 402 595 c 0,46,47
 353 595 353 595 311 574.5 c 128,-1,48
 269 554 269 554 238 519.5 c 128,-1,49
 207 485 207 485 189.5 440.5 c 128,-1,50
 172 396 172 396 173 349 c 0,31,32
EndSplineSet
EndChar

StartChar: r
Encoding: 114 114 80
Width: 693
GlyphClass: 2
Flags: W
LayerCount: 2
Fore
SplineSet
73 690 m 2,0,1
 73 695 73 695 76.5 698.5 c 128,-1,2
 80 702 80 702 85 702 c 2,3,-1
 613 702 l 2,4,5
 618 702 618 702 621.5 698.5 c 128,-1,6
 625 695 625 695 625 690 c 2,7,-1
 625 543 l 2,8,9
 625 529 625 529 616 518 c 2,10,-1
 458 311 l 1,11,-1
 684 16 l 2,12,13
 687 11 687 11 684.5 6.5 c 128,-1,14
 682 2 682 2 677 2 c 2,15,-1
 550 2 l 2,16,17
 530 2 530 2 517 18 c 2,18,-1
 298 303 l 2,19,20
 291 311 291 311 298 318 c 2,21,-1
 495 575 l 1,22,-1
 201 575 l 1,23,-1
 201 14 l 2,24,25
 201 2 201 2 188 2 c 2,26,-1
 85 2 l 2,27,28
 80 2 80 2 76.5 5.5 c 128,-1,29
 73 9 73 9 73 14 c 2,30,-1
 73 690 l 2,0,1
EndSplineSet
EndChar

StartChar: s
Encoding: 115 115 81
Width: 589
GlyphClass: 2
Flags: W
LayerCount: 2
Fore
SplineSet
54 495 m 0,0,1
 54 542 54 542 73.5 582 c 128,-1,2
 93 622 93 622 126.5 651 c 128,-1,3
 160 680 160 680 204.5 697 c 128,-1,4
 249 714 249 714 299 714 c 0,5,6
 377 714 377 714 434.5 686.5 c 128,-1,7
 492 659 492 659 521 623 c 0,8,9
 528 614 528 614 520 607 c 2,10,-1
 451 535 l 2,11,12
 447 531 447 531 441.5 531 c 128,-1,13
 436 531 436 531 432 536 c 0,14,15
 423 546 423 546 409.5 556 c 128,-1,16
 396 566 396 566 378.5 574.5 c 128,-1,17
 361 583 361 583 341 588 c 128,-1,18
 321 593 321 593 300 593 c 0,19,20
 275 593 275 593 254.5 585.5 c 128,-1,21
 234 578 234 578 220 566 c 128,-1,22
 206 554 206 554 198 538 c 128,-1,23
 190 522 190 522 190 504 c 0,24,25
 190 475 190 475 209 454 c 128,-1,26
 228 433 228 433 266 425 c 2,27,-1
 364 406 l 2,28,29
 412 397 412 397 448.5 377.5 c 128,-1,30
 485 358 485 358 509.5 331 c 128,-1,31
 534 304 534 304 547 270.5 c 128,-1,32
 560 237 560 237 560 200 c 0,33,34
 560 160 560 160 543.5 121 c 128,-1,35
 527 82 527 82 494.5 51 c 128,-1,36
 462 20 462 20 415 1.5 c 128,-1,37
 368 -17 368 -17 307 -17 c 0,38,39
 264 -17 264 -17 226.5 -8 c 128,-1,40
 189 1 189 1 158.5 15.5 c 128,-1,41
 128 30 128 30 105 47.5 c 128,-1,42
 82 65 82 65 67 82 c 0,43,44
 60 89 60 89 67 98 c 2,45,-1
 130 179 l 2,46,47
 133 184 133 184 138.5 184.5 c 128,-1,48
 144 185 144 185 148 181 c 0,49,50
 162 168 162 168 179 154.5 c 128,-1,51
 196 141 196 141 216 130 c 128,-1,52
 236 119 236 119 259 112 c 128,-1,53
 282 105 282 105 308 105 c 0,54,55
 363 105 363 105 392 129 c 128,-1,56
 421 153 421 153 421 191 c 0,57,58
 421 221 421 221 399.5 243.5 c 128,-1,59
 378 266 378 266 336 274 c 2,60,-1
 238 294 l 2,61,62
 154 311 154 311 104 363 c 128,-1,63
 54 415 54 415 54 495 c 0,0,1
EndSplineSet
EndChar

StartChar: t
Encoding: 116 116 82
Width: 598
GlyphClass: 2
Flags: W
LayerCount: 2
Fore
SplineSet
38 690 m 2,0,1
 38 695 38 695 41.5 698.5 c 128,-1,2
 45 702 45 702 50 702 c 2,3,-1
 484 702 l 2,4,5
 504 702 504 702 517 686 c 2,6,-1
 591 589 l 2,7,8
 595 584 595 584 592.5 579.5 c 128,-1,9
 590 575 590 575 584 575 c 2,10,-1
 361 575 l 1,11,-1
 361 14 l 2,12,13
 361 2 361 2 349 2 c 2,14,-1
 246 2 l 2,15,16
 234 2 234 2 234 14 c 2,17,-1
 234 575 l 1,18,-1
 50 575 l 2,19,20
 45 575 45 575 41.5 578.5 c 128,-1,21
 38 582 38 582 38 587 c 2,22,-1
 38 690 l 2,0,1
EndSplineSet
EndChar

StartChar: u
Encoding: 117 117 83
Width: 674
GlyphClass: 2
Flags: W
LayerCount: 2
Fore
SplineSet
85 702 m 2,0,-1
 188 702 l 2,1,2
 193 702 193 702 196.5 698.5 c 128,-1,3
 200 695 200 695 200 690 c 2,4,-1
 200 257 l 2,5,6
 200 230 200 230 209.5 205.5 c 128,-1,7
 219 181 219 181 235.5 161.5 c 128,-1,8
 252 142 252 142 275 130 c 128,-1,9
 298 118 298 118 325 115 c 0,10,11
 356 112 356 112 383.5 122 c 128,-1,12
 411 132 411 132 431.5 151 c 128,-1,13
 452 170 452 170 464 196.5 c 128,-1,14
 476 223 476 223 476 253 c 2,15,-1
 476 690 l 2,16,17
 476 695 476 695 480 698.5 c 128,-1,18
 484 702 484 702 489 702 c 2,19,-1
 591 702 l 2,20,21
 596 702 596 702 599.5 698.5 c 128,-1,22
 603 695 603 695 603 690 c 2,23,-1
 603 253 l 2,24,25
 603 199 603 199 582.5 151 c 128,-1,26
 562 103 562 103 527 67 c 128,-1,27
 492 31 492 31 444.5 9.5 c 128,-1,28
 397 -12 397 -12 343 -13 c 0,29,30
 287 -14 287 -14 238 7.5 c 128,-1,31
 189 29 189 29 152 66.5 c 128,-1,32
 115 104 115 104 94 153.5 c 128,-1,33
 73 203 73 203 73 259 c 2,34,-1
 73 690 l 2,35,36
 73 695 73 695 76.5 698.5 c 128,-1,37
 80 702 80 702 85 702 c 2,0,-1
EndSplineSet
EndChar

StartChar: x
Encoding: 120 120 84
Width: 697
GlyphClass: 2
Flags: W
LayerCount: 2
Fore
SplineSet
9 16 m 2,0,-1
 267 352 l 1,1,-1
 9 688 l 2,2,3
 5 692 5 692 8 697 c 128,-1,4
 11 702 11 702 16 702 c 2,5,-1
 143 702 l 2,6,7
 163 702 163 702 176 686 c 2,8,-1
 350 460 l 1,9,-1
 523 686 l 2,10,11
 536 702 536 702 556 702 c 2,12,-1
 683 702 l 2,13,14
 689 702 689 702 691.5 697 c 128,-1,15
 694 692 694 692 690 688 c 2,16,-1
 432 352 l 1,17,-1
 690 16 l 2,18,19
 694 11 694 11 691.5 6.5 c 128,-1,20
 689 2 689 2 683 2 c 2,21,-1
 556 2 l 2,22,23
 536 2 536 2 523 18 c 2,24,-1
 350 244 l 1,25,-1
 176 18 l 2,26,27
 163 2 163 2 143 2 c 2,28,-1
 16 2 l 2,29,30
 11 2 11 2 8 6.5 c 128,-1,31
 5 11 5 11 9 16 c 2,0,-1
EndSplineSet
EndChar

StartChar: z
Encoding: 122 122 85
Width: 582
GlyphClass: 2
Flags: W
LayerCount: 2
Fore
SplineSet
73 14 m 2,0,-1
 73 161 l 2,1,2
 73 176 73 176 82 186 c 2,3,-1
 380 575 l 1,4,-1
 85 575 l 2,5,6
 80 575 80 575 76.5 578.5 c 128,-1,7
 73 582 73 582 73 587 c 2,8,-1
 73 690 l 2,9,10
 73 695 73 695 76.5 698.5 c 128,-1,11
 80 702 80 702 85 702 c 2,12,-1
 499 702 l 2,13,14
 504 702 504 702 507.5 698.5 c 128,-1,15
 511 695 511 695 511 690 c 2,16,-1
 511 543 l 2,17,18
 511 529 511 529 502 518 c 2,19,-1
 204 129 l 1,20,-1
 499 129 l 2,21,22
 504 129 504 129 507.5 125.5 c 128,-1,23
 511 122 511 122 511 117 c 2,24,-1
 511 14 l 2,25,26
 511 9 511 9 507.5 5.5 c 128,-1,27
 504 2 504 2 499 2 c 2,28,-1
 85 2 l 2,29,30
 80 2 80 2 76.5 5.5 c 128,-1,31
 73 9 73 9 73 14 c 2,0,-1
EndSplineSet
EndChar

StartChar: d
Encoding: 100 100 86
Width: 701
GlyphClass: 2
Flags: W
LayerCount: 2
Fore
SplineSet
73 688 m 2,0,1
 73 693 73 693 76.5 696.5 c 128,-1,2
 80 700 80 700 85 700 c 2,3,-1
 308 700 l 2,4,5
 380 700 380 700 443 673 c 128,-1,6
 506 646 506 646 553 599.5 c 128,-1,7
 600 553 600 553 628.5 490.5 c 128,-1,8
 657 428 657 428 658 357 c 0,9,10
 660 283 660 283 631.5 218 c 128,-1,11
 603 153 603 153 554 104.5 c 128,-1,12
 505 56 505 56 439.5 28 c 128,-1,13
 374 0 374 0 300 0 c 2,14,-1
 85 0 l 2,15,16
 80 0 80 0 76.5 3.5 c 128,-1,17
 73 7 73 7 73 12 c 2,18,-1
 73 688 l 2,0,1
201 127 m 1,19,-1
 308 127 l 2,20,21
 354 127 354 127 394.5 144.5 c 128,-1,22
 435 162 435 162 465.5 192.5 c 128,-1,23
 496 223 496 223 513.5 263.5 c 128,-1,24
 531 304 531 304 531 350 c 256,25,26
 531 396 531 396 513.5 436.5 c 128,-1,27
 496 477 496 477 465.5 507.5 c 128,-1,28
 435 538 435 538 394.5 555.5 c 128,-1,29
 354 573 354 573 308 573 c 2,30,-1
 201 573 l 1,31,-1
 201 127 l 1,19,-1
EndSplineSet
EndChar

StartChar: a_n
Encoding: 57345 57345 87
Width: 1325
GlyphClass: 3
Flags: W
LayerCount: 2
Fore
SplineSet
85 700 m 2,0,-1
 180 700 l 2,1,2
 200 700 200 700 213 684 c 2,3,-1
 727 14 l 2,4,5
 731 10 731 10 728.5 5 c 128,-1,6
 726 0 726 0 720 0 c 2,7,-1
 593 0 l 2,8,9
 573 0 573 0 560 16 c 2,10,-1
 387 242 l 1,11,-1
 213 16 l 2,12,13
 200 0 200 0 180 0 c 2,14,-1
 85 0 l 2,15,16
 80 0 80 0 76.5 3.5 c 128,-1,17
 73 7 73 7 73 12 c 2,18,-1
 73 688 l 2,19,20
 73 693 73 693 76.5 696.5 c 128,-1,21
 80 700 80 700 85 700 c 2,0,-1
625 688 m 2,22,23
 625 700 625 700 638 700 c 2,24,-1
 733 700 l 2,25,26
 752 700 752 700 765 684 c 2,27,-1
 1125 216 l 1,28,-1
 1125 688 l 2,29,30
 1125 700 1125 700 1137 700 c 2,31,-1
 1240 700 l 2,32,33
 1253 700 1253 700 1253 688 c 2,34,-1
 1253 12 l 2,35,36
 1253 7 1253 7 1249 3.5 c 128,-1,37
 1245 0 1245 0 1240 0 c 2,38,-1
 1145 0 l 2,39,40
 1125 0 1125 0 1112 16 c 2,41,-1
 753 484 l 1,42,-1
 753 210 l 2,43,44
 753 204 753 204 747 202 c 128,-1,45
 741 200 741 200 737 205 c 2,46,-1
 634 339 l 2,47,48
 625 350 625 350 625 364 c 2,49,-1
 625 688 l 2,22,23
201 484 m 1,50,-1
 201 216 l 1,51,-1
 304 350 l 1,52,-1
 201 484 l 1,50,-1
EndSplineSet
Ligature2: "'liga' Standard Ligatures in Latin lookup 0 subtable" a n
Ligature2: "'liga' Standard Ligatures in Latin lookup 0 subtable" a N
EndChar

StartChar: m_n
Encoding: 65537 -1 88
Width: 1825
GlyphClass: 3
Flags: W
LayerCount: 2
Fore
SplineSet
85 700 m 2,0,-1
 180 700 l 2,1,2
 200 700 200 700 213 684 c 2,3,-1
 573 216 l 1,4,-1
 573 688 l 2,5,6
 573 700 573 700 585 700 c 2,7,-1
 680 700 l 2,8,9
 700 700 700 700 713 684 c 2,10,-1
 1227 14 l 2,11,12
 1230 10 1230 10 1227.5 5 c 128,-1,13
 1225 0 1225 0 1220 0 c 2,14,-1
 1092 0 l 2,15,16
 1073 0 1073 0 1060 16 c 2,17,-1
 700 484 l 1,18,-1
 700 12 l 2,19,20
 700 7 700 7 696.5 3.5 c 128,-1,21
 693 0 693 0 688 0 c 2,22,-1
 593 0 l 2,23,24
 573 0 573 0 560 16 c 2,25,-1
 201 484 l 1,26,-1
 201 12 l 2,27,28
 201 7 201 7 197 3.5 c 128,-1,29
 193 0 193 0 188 0 c 2,30,-1
 85 0 l 2,31,32
 80 0 80 0 76.5 3.5 c 128,-1,33
 73 7 73 7 73 12 c 2,34,-1
 73 688 l 2,35,36
 73 693 73 693 76.5 696.5 c 128,-1,37
 80 700 80 700 85 700 c 2,0,-1
1125 364 m 2,38,-1
 1125 688 l 2,39,40
 1125 700 1125 700 1137 700 c 2,41,-1
 1232 700 l 2,42,43
 1252 700 1252 700 1265 684 c 2,44,-1
 1624 216 l 1,45,-1
 1624 688 l 2,46,47
 1624 700 1624 700 1637 700 c 2,48,-1
 1740 700 l 2,49,50
 1752 700 1752 700 1752 688 c 2,51,-1
 1752 12 l 2,52,53
 1752 7 1752 7 1748.5 3.5 c 128,-1,54
 1745 0 1745 0 1740 0 c 2,55,-1
 1645 0 l 2,56,57
 1625 0 1625 0 1612 16 c 2,58,-1
 1252 484 l 1,59,-1
 1252 210 l 2,60,61
 1252 204 1252 204 1246.5 202 c 128,-1,62
 1241 200 1241 200 1236 205 c 2,63,-1
 1133 339 l 2,64,65
 1125 350 1125 350 1125 364 c 2,38,-1
EndSplineSet
Ligature2: "'liga' Standard Ligatures in Latin lookup 0 subtable" m n
Ligature2: "'liga' Standard Ligatures in Latin lookup 0 subtable" m N
EndChar

StartChar: backslash_n
Encoding: 65538 -1 89
Width: 1286
GlyphClass: 3
Flags: W
LayerCount: 2
Fore
SplineSet
600 700 m 2,0,-1
 696 700 l 2,1,2
 715 700 715 700 728 684 c 2,3,-1
 1088 216 l 1,4,-1
 1088 688 l 2,5,6
 1088 700 1088 700 1100 700 c 2,7,-1
 1203 700 l 2,8,9
 1215 700 1215 700 1215 688 c 2,10,-1
 1215 12 l 2,11,12
 1215 7 1215 7 1211.5 3.5 c 128,-1,13
 1208 0 1208 0 1203 0 c 2,14,-1
 1108 0 l 2,15,16
 1088 0 1088 0 1075 16 c 2,17,-1
 716 484 l 1,18,-1
 716 210 l 2,19,20
 716 204 716 204 710 202 c 128,-1,21
 704 200 704 200 700 205 c 2,22,-1
 597 339 l 2,23,24
 588 350 588 350 588 364 c 2,25,-1
 588 688 l 2,26,27
 588 693 588 693 591.5 696.5 c 128,-1,28
 595 700 595 700 600 700 c 2,0,-1
16 700 m 2,29,-1
 143 700 l 2,30,31
 163 700 163 700 176 684 c 2,32,-1
 690 14 l 2,33,34
 694 10 694 10 691.5 5 c 128,-1,35
 689 0 689 0 683 0 c 2,36,-1
 556 0 l 2,37,38
 536 0 536 0 523 16 c 2,39,-1
 9 686 l 2,40,41
 5 691 5 691 8 695.5 c 128,-1,42
 11 700 11 700 16 700 c 2,29,-1
EndSplineSet
Ligature2: "'liga' Standard Ligatures in Latin lookup 0 subtable" backslash n
Ligature2: "'liga' Standard Ligatures in Latin lookup 0 subtable" backslash N
EndChar

StartChar: n_backslash
Encoding: 65539 -1 90
Width: 1286
GlyphClass: 3
Flags: W
LayerCount: 2
Fore
SplineSet
73 12 m 2,0,-1
 73 688 l 2,1,2
 73 693 73 693 76.5 696.5 c 128,-1,3
 80 700 80 700 85 700 c 2,4,-1
 180 700 l 2,5,6
 200 700 200 700 213 684 c 2,7,-1
 573 216 l 1,8,-1
 573 490 l 2,9,10
 573 496 573 496 578.5 498 c 128,-1,11
 584 500 584 500 589 495 c 2,12,-1
 692 361 l 2,13,14
 700 350 700 350 700 336 c 2,15,-1
 700 12 l 2,16,17
 700 7 700 7 696.5 3.5 c 128,-1,18
 693 0 693 0 688 0 c 2,19,-1
 593 0 l 2,20,21
 573 0 573 0 560 16 c 2,22,-1
 201 484 l 1,23,-1
 201 12 l 2,24,25
 201 7 201 7 197 3.5 c 128,-1,26
 193 0 193 0 188 0 c 2,27,-1
 85 0 l 2,28,29
 80 0 80 0 76.5 3.5 c 128,-1,30
 73 7 73 7 73 12 c 2,0,-1
605 700 m 2,31,-1
 733 700 l 2,32,33
 742 700 742 700 751 696 c 128,-1,34
 760 692 760 692 765 684 c 2,35,-1
 1280 14 l 2,36,37
 1283 10 1283 10 1280.5 5 c 128,-1,38
 1278 0 1278 0 1272 0 c 2,39,-1
 1145 0 l 2,40,41
 1124 0 1124 0 1113 16 c 2,42,-1
 598 686 l 2,43,44
 595 691 595 691 597.5 695.5 c 128,-1,45
 600 700 600 700 605 700 c 2,31,-1
EndSplineSet
Ligature2: "'liga' Standard Ligatures in Latin lookup 0 subtable" n backslash
Ligature2: "'liga' Standard Ligatures in Latin lookup 0 subtable" N backslash
EndChar

StartChar: n_v
Encoding: 65540 -1 91
Width: 1325
GlyphClass: 3
Flags: W
LayerCount: 2
Fore
SplineSet
73 12 m 2,0,-1
 73 688 l 2,1,2
 73 693 73 693 76.5 696.5 c 128,-1,3
 80 700 80 700 85 700 c 2,4,-1
 180 700 l 2,5,6
 200 700 200 700 213 684 c 2,7,-1
 573 216 l 1,8,-1
 573 490 l 2,9,10
 573 496 573 496 578.5 498 c 128,-1,11
 584 500 584 500 589 495 c 2,12,-1
 692 361 l 2,13,14
 700 350 700 350 700 336 c 2,15,-1
 700 12 l 2,16,17
 700 7 700 7 696.5 3.5 c 128,-1,18
 693 0 693 0 688 0 c 2,19,-1
 593 0 l 2,20,21
 573 0 573 0 560 16 c 2,22,-1
 201 484 l 1,23,-1
 201 12 l 2,24,25
 201 7 201 7 197 3.5 c 128,-1,26
 193 0 193 0 188 0 c 2,27,-1
 85 0 l 2,28,29
 80 0 80 0 76.5 3.5 c 128,-1,30
 73 7 73 7 73 12 c 2,0,-1
605 700 m 2,31,-1
 733 700 l 2,32,33
 742 700 742 700 751 696 c 128,-1,34
 760 692 760 692 765 684 c 2,35,-1
 1125 216 l 1,36,-1
 1125 688 l 2,37,38
 1125 700 1125 700 1137 700 c 2,39,-1
 1240 700 l 2,40,41
 1252 700 1252 700 1252 688 c 2,42,-1
 1252 12 l 2,43,44
 1252 7 1252 7 1248.5 3.5 c 128,-1,45
 1245 0 1245 0 1240 0 c 2,46,-1
 1145 0 l 2,47,48
 1124 0 1124 0 1113 16 c 2,49,-1
 598 686 l 2,50,51
 595 691 595 691 597.5 695.5 c 128,-1,52
 600 700 600 700 605 700 c 2,31,-1
EndSplineSet
Ligature2: "'liga' Standard Ligatures in Latin lookup 0 subtable" n V
Ligature2: "'liga' Standard Ligatures in Latin lookup 0 subtable" N V
EndChar

StartChar: n_w
Encoding: 65541 -1 92
Width: 1825
GlyphClass: 3
Flags: W
LayerCount: 2
Fore
SplineSet
605 700 m 2,0,-1
 733 700 l 2,1,2
 742 700 742 700 751 696 c 128,-1,3
 760 692 760 692 765 684 c 2,4,-1
 1125 216 l 1,5,-1
 1125 688 l 2,6,7
 1125 700 1125 700 1137 700 c 2,8,-1
 1232 700 l 2,9,10
 1252 700 1252 700 1265 684 c 2,11,-1
 1624 216 l 1,12,-1
 1624 688 l 2,13,14
 1624 700 1624 700 1637 700 c 2,15,-1
 1740 700 l 2,16,17
 1752 700 1752 700 1752 688 c 2,18,-1
 1752 12 l 2,19,20
 1752 7 1752 7 1748.5 3.5 c 128,-1,21
 1745 0 1745 0 1740 0 c 2,22,-1
 1645 0 l 2,23,24
 1625 0 1625 0 1612 16 c 2,25,-1
 1252 484 l 1,26,-1
 1252 12 l 2,27,28
 1252 7 1252 7 1248.5 3.5 c 128,-1,29
 1245 0 1245 0 1240 0 c 2,30,-1
 1145 0 l 2,31,32
 1124 0 1124 0 1113 16 c 2,33,-1
 598 686 l 2,34,35
 595 691 595 691 597.5 695.5 c 128,-1,36
 600 700 600 700 605 700 c 2,0,-1
85 700 m 2,37,-1
 180 700 l 2,38,39
 200 700 200 700 213 684 c 2,40,-1
 573 216 l 1,41,-1
 573 490 l 2,42,43
 573 496 573 496 578.5 498 c 128,-1,44
 584 500 584 500 589 495 c 2,45,-1
 692 361 l 2,46,47
 700 350 700 350 700 336 c 2,48,-1
 700 12 l 2,49,50
 700 7 700 7 696.5 3.5 c 128,-1,51
 693 0 693 0 688 0 c 2,52,-1
 593 0 l 2,53,54
 573 0 573 0 560 16 c 2,55,-1
 201 484 l 1,56,-1
 201 12 l 2,57,58
 201 7 201 7 197 3.5 c 128,-1,59
 193 0 193 0 188 0 c 2,60,-1
 85 0 l 2,61,62
 80 0 80 0 76.5 3.5 c 128,-1,63
 73 7 73 7 73 12 c 2,64,-1
 73 688 l 2,65,66
 73 693 73 693 76.5 696.5 c 128,-1,67
 80 700 80 700 85 700 c 2,37,-1
EndSplineSet
Ligature2: "'liga' Standard Ligatures in Latin lookup 0 subtable" n W
Ligature2: "'liga' Standard Ligatures in Latin lookup 0 subtable" N W
EndChar

StartChar: six
Encoding: 54 54 93
Width: 663
GlyphClass: 2
Flags: W
LayerCount: 2
Fore
SplineSet
73 13 m 2,0,-1
 73 688 l 2,1,2
 73 693 73 693 76.5 696.5 c 128,-1,3
 80 700 80 700 85 700 c 2,4,-1
 366 700 l 2,5,6
 387 700 387 700 399 684 c 2,7,-1
 473 588 l 2,8,9
 476 583 476 583 473.5 578 c 128,-1,10
 471 573 471 573 466 573 c 2,11,-1
 201 573 l 1,12,-1
 201 128 l 1,13,-1
 462 128 l 1,14,-1
 270 377 l 2,15,16
 266 382 266 382 269 387 c 128,-1,17
 272 392 272 392 277 392 c 2,18,-1
 404 392 l 2,19,20
 425 392 425 392 437 375 c 2,21,-1
 583 185 l 2,22,23
 592 175 592 175 592 160 c 2,24,-1
 592 13 l 2,25,26
 592 8 592 8 588.5 4 c 128,-1,27
 585 0 585 0 580 0 c 2,28,-1
 85 0 l 2,29,30
 80 0 80 0 76.5 4 c 128,-1,31
 73 8 73 8 73 13 c 2,0,-1
EndSplineSet
EndChar

StartChar: nine
Encoding: 57 57 94
Width: 663
GlyphClass: 2
Flags: W
LayerCount: 2
Fore
SplineSet
85 700 m 2,0,-1
 580 700 l 2,1,2
 585 700 585 700 588.5 696.5 c 128,-1,3
 592 693 592 693 592 688 c 2,4,-1
 592 13 l 2,5,6
 592 8 592 8 588.5 4 c 128,-1,7
 585 0 585 0 580 0 c 2,8,-1
 299 0 l 2,9,10
 278 0 278 0 266 17 c 2,11,-1
 192 113 l 2,12,13
 189 118 189 118 191.5 123 c 128,-1,14
 194 128 194 128 199 128 c 2,15,-1
 464 128 l 1,16,-1
 464 573 l 1,17,-1
 203 573 l 1,18,-1
 395 324 l 2,19,20
 399 319 399 319 396 314 c 128,-1,21
 393 309 393 309 388 309 c 2,22,-1
 261 309 l 2,23,24
 240 309 240 309 228 326 c 2,25,-1
 82 516 l 2,26,27
 73 527 73 527 73 541 c 2,28,-1
 73 688 l 2,29,30
 73 693 73 693 76.5 696.5 c 128,-1,31
 80 700 80 700 85 700 c 2,0,-1
EndSplineSet
EndChar

StartChar: S
Encoding: 83 83 95
Width: 589
GlyphClass: 2
Flags: W
LayerCount: 2
Fore
SplineSet
54 495 m 0,0,1
 54 542 54 542 73.5 582 c 128,-1,2
 93 622 93 622 126.5 651 c 128,-1,3
 160 680 160 680 204.5 697 c 128,-1,4
 249 714 249 714 299 714 c 0,5,6
 377 714 377 714 434.5 686.5 c 128,-1,7
 492 659 492 659 521 623 c 0,8,9
 528 614 528 614 520 607 c 2,10,-1
 451 535 l 2,11,12
 447 531 447 531 441.5 531 c 128,-1,13
 436 531 436 531 432 536 c 0,14,15
 423 546 423 546 409.5 556 c 128,-1,16
 396 566 396 566 378.5 574.5 c 128,-1,17
 361 583 361 583 341 588 c 128,-1,18
 321 593 321 593 300 593 c 0,19,20
 275 593 275 593 254.5 585.5 c 128,-1,21
 234 578 234 578 220 566 c 128,-1,22
 206 554 206 554 198 538 c 128,-1,23
 190 522 190 522 190 504 c 0,24,25
 190 475 190 475 209 454 c 128,-1,26
 228 433 228 433 266 425 c 2,27,-1
 364 406 l 2,28,29
 412 397 412 397 448.5 377.5 c 128,-1,30
 485 358 485 358 509.5 331 c 128,-1,31
 534 304 534 304 547 270.5 c 128,-1,32
 560 237 560 237 560 200 c 0,33,34
 560 160 560 160 543.5 121 c 128,-1,35
 527 82 527 82 494.5 51 c 128,-1,36
 462 20 462 20 415 1.5 c 128,-1,37
 368 -17 368 -17 307 -17 c 0,38,39
 264 -17 264 -17 226.5 -8 c 128,-1,40
 189 1 189 1 158.5 15.5 c 128,-1,41
 128 30 128 30 105 47.5 c 128,-1,42
 82 65 82 65 67 82 c 0,43,44
 60 89 60 89 67 98 c 2,45,-1
 130 179 l 2,46,47
 133 184 133 184 138.5 184.5 c 128,-1,48
 144 185 144 185 148 181 c 0,49,50
 162 168 162 168 179 154.5 c 128,-1,51
 196 141 196 141 216 130 c 128,-1,52
 236 119 236 119 259 112 c 128,-1,53
 282 105 282 105 308 105 c 0,54,55
 363 105 363 105 392 129 c 128,-1,56
 421 153 421 153 421 191 c 0,57,58
 421 221 421 221 399.5 243.5 c 128,-1,59
 378 266 378 266 336 274 c 2,60,-1
 238 294 l 2,61,62
 154 311 154 311 104 363 c 128,-1,63
 54 415 54 415 54 495 c 0,0,1
EndSplineSet
EndChar

StartChar: Ccedilla
Encoding: 199 199 96
Width: 717
Flags: W
LayerCount: 2
Fore
SplineSet
308 -52 m 5,0,-1
 400 -52 l 5,1,-1
 336 -206 l 5,2,-1
 234 -206 l 5,3,-1
 308 -52 l 5,0,-1
45 353 m 256,4,5
 45 430 45 430 73.5 496 c 128,-1,6
 102 562 102 562 150.5 611 c 128,-1,7
 199 660 199 660 265 687.5 c 128,-1,8
 331 715 331 715 407 714 c 0,9,10
 488 713 488 713 556.5 681 c 128,-1,11
 625 649 625 649 675 593 c 0,12,13
 678 589 678 589 677.5 584 c 128,-1,14
 677 579 677 579 673 576 c 2,15,-1
 594 509 l 2,16,17
 590 506 590 506 585 506.5 c 128,-1,18
 580 507 580 507 577 511 c 0,19,20
 544 549 544 549 499 571.5 c 128,-1,21
 454 594 454 594 402 593 c 0,22,23
 355 592 355 592 313 572.5 c 128,-1,24
 271 553 271 553 240 519.5 c 128,-1,25
 209 486 209 486 191 442 c 128,-1,26
 173 398 173 398 173 348 c 256,27,28
 173 298 173 298 192 254 c 128,-1,29
 211 210 211 210 243 177 c 128,-1,30
 275 144 275 144 317 125.5 c 128,-1,31
 359 107 359 107 407 107 c 0,32,33
 457 108 457 108 501 130 c 128,-1,34
 545 152 545 152 577 190 c 0,35,36
 580 194 580 194 585 194.5 c 128,-1,37
 590 195 590 195 594 191 c 2,38,-1
 673 124 l 2,39,40
 677 121 677 121 677.5 116 c 128,-1,41
 678 111 678 111 675 107 c 0,42,43
 624 50 624 50 554 17.5 c 128,-1,44
 484 -15 484 -15 401 -14 c 0,45,46
 326 -14 326 -14 260.5 14.5 c 128,-1,47
 195 43 195 43 147 92.5 c 128,-1,48
 99 142 99 142 72 209 c 128,-1,49
 45 276 45 276 45 353 c 256,4,5
EndSplineSet
EndChar

StartChar: atilde
Encoding: 227 227 97
Width: 734
Flags: W
LayerCount: 2
Fore
SplineSet
54 818 m 5,0,-1
 530 818 l 1,1,-1
 530 746 l 1,2,-1
 54 746 l 1,3,-1
 54 818 l 5,0,-1
73 12 m 2,0,-1
 73 688 l 2,1,2
 73 693 73 693 76.5 696.5 c 128,-1,3
 80 700 80 700 85 700 c 2,4,-1
 180 700 l 2,5,6
 200 700 200 700 213 684 c 2,7,-1
 728 14 l 2,8,9
 731 9 731 9 728.5 4.5 c 128,-1,10
 726 0 726 0 720 0 c 2,11,-1
 593 0 l 2,12,13
 573 0 573 0 560 16 c 2,14,-1
 387 242 l 1,15,-1
 213 16 l 2,16,17
 200 0 200 0 180 0 c 2,18,-1
 85 0 l 2,19,20
 80 0 80 0 76.5 3.5 c 128,-1,21
 73 7 73 7 73 12 c 2,0,-1
201 484 m 1,22,-1
 201 216 l 1,23,-1
 304 350 l 1,24,-1
 201 484 l 1,22,-1
EndSplineSet
EndChar

StartChar: ccedilla
Encoding: 231 231 98
Width: 717
Flags: W
LayerCount: 2
Fore
SplineSet
308 -52 m 5,0,-1
 400 -52 l 5,1,-1
 336 -206 l 5,2,-1
 234 -206 l 5,3,-1
 308 -52 l 5,0,-1
45 353 m 256,4,5
 45 430 45 430 73.5 496 c 128,-1,6
 102 562 102 562 150.5 611 c 128,-1,7
 199 660 199 660 265 687.5 c 128,-1,8
 331 715 331 715 407 714 c 0,9,10
 488 713 488 713 556.5 681 c 128,-1,11
 625 649 625 649 675 593 c 0,12,13
 678 589 678 589 677.5 584 c 128,-1,14
 677 579 677 579 673 576 c 2,15,-1
 594 509 l 2,16,17
 590 506 590 506 585 506.5 c 128,-1,18
 580 507 580 507 577 511 c 0,19,20
 544 549 544 549 499 571.5 c 128,-1,21
 454 594 454 594 402 593 c 0,22,23
 355 592 355 592 313 572.5 c 128,-1,24
 271 553 271 553 240 519.5 c 128,-1,25
 209 486 209 486 191 442 c 128,-1,26
 173 398 173 398 173 348 c 256,27,28
 173 298 173 298 192 254 c 128,-1,29
 211 210 211 210 243 177 c 128,-1,30
 275 144 275 144 317 125.5 c 128,-1,31
 359 107 359 107 407 107 c 0,32,33
 457 108 457 108 501 130 c 128,-1,34
 545 152 545 152 577 190 c 0,35,36
 580 194 580 194 585 194.5 c 128,-1,37
 590 195 590 195 594 191 c 2,38,-1
 673 124 l 2,39,40
 677 121 677 121 677.5 116 c 128,-1,41
 678 111 678 111 675 107 c 0,42,43
 624 50 624 50 554 17.5 c 128,-1,44
 484 -15 484 -15 401 -14 c 0,45,46
 326 -14 326 -14 260.5 14.5 c 128,-1,47
 195 43 195 43 147 92.5 c 128,-1,48
 99 142 99 142 72 209 c 128,-1,49
 45 276 45 276 45 353 c 256,4,5
EndSplineSet
EndChar

StartChar: Atilde
Encoding: 195 195 99
Width: 734
Flags: W
LayerCount: 2
Fore
SplineSet
30 828 m 5,0,-1
 484 828 l 1,1,-1
 484 754 l 1,2,-1
 30 754 l 1,3,-1
 30 828 l 5,0,-1
73 12 m 2,0,-1
 73 688 l 2,1,2
 73 693 73 693 76.5 696.5 c 128,-1,3
 80 700 80 700 85 700 c 2,4,-1
 180 700 l 2,5,6
 200 700 200 700 213 684 c 2,7,-1
 728 14 l 2,8,9
 731 9 731 9 728.5 4.5 c 128,-1,10
 726 0 726 0 720 0 c 2,11,-1
 593 0 l 2,12,13
 573 0 573 0 560 16 c 2,14,-1
 387 242 l 1,15,-1
 213 16 l 2,16,17
 200 0 200 0 180 0 c 2,18,-1
 85 0 l 2,19,20
 80 0 80 0 76.5 3.5 c 128,-1,21
 73 7 73 7 73 12 c 2,0,-1
201 484 m 1,22,-1
 201 216 l 1,23,-1
 304 350 l 1,24,-1
 201 484 l 1,22,-1
EndSplineSet
EndChar

StartChar: otilde
Encoding: 245 245 100
Width: 809
Flags: W
LayerCount: 2
Fore
SplineSet
129 887 m 5,0,-1
 660 887 l 5,1,-1
 660 779 l 5,2,-1
 129 779 l 5,3,-1
 129 887 l 5,0,-1
45 353 m 256,4,5
 45 430 45 430 73.5 496.5 c 128,-1,6
 102 563 102 563 150.5 611.5 c 128,-1,7
 199 660 199 660 265 687.5 c 128,-1,8
 331 715 331 715 407 714 c 256,9,10
 483 713 483 713 549 684 c 128,-1,11
 615 655 615 655 663.5 605 c 128,-1,12
 712 555 712 555 740 488.5 c 128,-1,13
 768 422 768 422 767 347 c 0,14,15
 766 271 766 271 737 205 c 128,-1,16
 708 139 708 139 658.5 90 c 128,-1,17
 609 41 609 41 543 13.5 c 128,-1,18
 477 -14 477 -14 401 -14 c 0,19,20
 326 -14 326 -14 260.5 14.5 c 128,-1,21
 195 43 195 43 147 92.5 c 128,-1,22
 99 142 99 142 72 209 c 128,-1,23
 45 276 45 276 45 353 c 256,4,5
173 348 m 0,24,25
 173 299 173 299 192 255 c 128,-1,26
 211 211 211 211 243 178 c 128,-1,27
 275 145 275 145 317 126 c 128,-1,28
 359 107 359 107 407 107 c 0,29,30
 454 108 454 108 496 128 c 128,-1,31
 538 148 538 148 569.5 181.5 c 128,-1,32
 601 215 601 215 619 259.5 c 128,-1,33
 637 304 637 304 636 353 c 0,34,35
 636 402 636 402 617 446 c 128,-1,36
 598 490 598 490 566 522.5 c 128,-1,37
 534 555 534 555 491.5 574 c 128,-1,38
 449 593 449 593 402 593 c 0,39,40
 355 592 355 592 313 572.5 c 128,-1,41
 271 553 271 553 240 519.5 c 128,-1,42
 209 486 209 486 191 442 c 128,-1,43
 173 398 173 398 173 348 c 0,24,25
EndSplineSet
EndChar

StartChar: Otilde
Encoding: 213 213 101
Width: 809
Flags: W
LayerCount: 2
Fore
SplineSet
129 887 m 5
 660 887 l 5
 660 779 l 5
 129 779 l 5
 129 887 l 5
45 353 m 256,0,1
 45 430 45 430 73.5 496.5 c 128,-1,2
 102 563 102 563 150.5 611.5 c 128,-1,3
 199 660 199 660 265 687.5 c 128,-1,4
 331 715 331 715 407 714 c 256,5,6
 483 713 483 713 549 684 c 128,-1,7
 615 655 615 655 663.5 605 c 128,-1,8
 712 555 712 555 740 488.5 c 128,-1,9
 768 422 768 422 767 347 c 0,10,11
 766 271 766 271 737 205 c 128,-1,12
 708 139 708 139 658.5 90 c 128,-1,13
 609 41 609 41 543 13.5 c 128,-1,14
 477 -14 477 -14 401 -14 c 0,15,16
 326 -14 326 -14 260.5 14.5 c 128,-1,17
 195 43 195 43 147 92.5 c 128,-1,18
 99 142 99 142 72 209 c 128,-1,19
 45 276 45 276 45 353 c 256,0,1
173 348 m 0,20,21
 173 299 173 299 192 255 c 128,-1,22
 211 211 211 211 243 178 c 128,-1,23
 275 145 275 145 317 126 c 128,-1,24
 359 107 359 107 407 107 c 0,25,26
 454 108 454 108 496 128 c 128,-1,27
 538 148 538 148 569.5 181.5 c 128,-1,28
 601 215 601 215 619 259.5 c 128,-1,29
 637 304 637 304 636 353 c 0,30,31
 636 402 636 402 617 446 c 128,-1,32
 598 490 598 490 566 522.5 c 128,-1,33
 534 555 534 555 491.5 574 c 128,-1,34
 449 593 449 593 402 593 c 0,35,36
 355 592 355 592 313 572.5 c 128,-1,37
 271 553 271 553 240 519.5 c 128,-1,38
 209 486 209 486 191 442 c 128,-1,39
 173 398 173 398 173 348 c 0,20,21
EndSplineSet
EndChar
